<svg width="460.55351" height="499.87026" xmlns="http://www.w3.org/2000/svg">

 <g>
  <title>Layer 1</title>
  <path id="svg_13" fill="#3f3d56" d="m454.99996,229.84023a0.9803,0.9803 0 0 1 -0.24024,0.68006a0.99982,0.99982 0 0 1 -1.40967,0.11l-3.35009,-2.89l-56.96,-49.07l-159.75976,-137.65a5.01961,5.01961 0 0 0 -6.54,0.01l-215.14014,186.91l-1.93994,1.68a0.96621,0.96621 0 0 1 -0.25,0.16a1,1 0 0 1 -0.51025,0.08a1.02484,1.02484 0 0 1 -0.6499,-0.33a0.99744,0.99744 0 0 1 0.08984,-1.41l0.27,-0.24l216.82031,-188.36a7.0466,7.0466 0 0 1 9.15967,-0.02l159.81006,137.69l60.25,51.92a1.01574,1.01574 0 0 1 0.35011,0.72994z"/>
  <path id="svg_14" fill="#e6e6e6" d="m333.5302,259.37026l-2.63037,-7.24l-9.06006,-25l-19.52,-53.83l-21.81982,-60.17l-39.3501,-108.53a8.51614,8.51614 0 0 0 -10.89014,-5.09l-227.50976,82.49a8.51217,8.51217 0 0 0 -5.08985,10.89l55.79,153.86l0.94971,2.63l58.56006,26.54l16.46,7.46l2.66992,1.21l69.69043,31.59l2.69971,-0.98l45.71,-16.57l68.95019,-25l9.29,-3.37a8.51789,8.51789 0 0 0 5.10008,-10.89z"/>
  <path id="svg_15" fill="#fff" d="m238.12984,131.21029a12.52171,12.52171 0 0 0 -16.02,-7.49005l-90.02,32.65l-43.46973,15.76a12.49841,12.49841 0 1 0 8.52,23.5l34.94971,-12.67l98.55029,-35.73a12.52158,12.52158 0 0 0 7.48973,-16.01995z"/>
  <path id="svg_16" fill="#fff" d="m253.97994,174.93026a12.52187,12.52187 0 0 0 -16.02,-7.49l-15.25,5.53l-90.62012,32.86l-27.61963,10.01a12.50311,12.50311 0 0 0 8.52,23.51l19.09961,-6.93l114.40039,-41.48c0.25977,-0.09 0.50977,-0.2 0.75977,-0.31a12.49821,12.49821 0 0 0 6.72998,-15.7z"/>
  <path id="svg_17" fill="#fff" d="m269.99996,219.11025a12.5107,12.5107 0 0 0 -16.00977,-7.49l-42.77,15.51l-33.11035,12.01l-46.02,16.68l-11.59961,4.21a12.52729,12.52729 0 0 0 -8.13037,13.42a12.3647,12.3647 0 0 0 0.6001,2.47l16.46,7.46l2.66992,-0.97l0.02,0l83.51025,-30.28l46.88965,-17a12.51132,12.51132 0 0 0 7.49024,-16.02l-0.00006,0z"/>
  <path id="svg_18" fill="#fff" d="m176.26998,88.23025a12.52192,12.52192 0 0 0 -16.02,-7.49l-51.7002,18.74a12.50311,12.50311 0 0 0 8.52,23.51l16.36035,-5.93l10.82959,-3.93l24.52051,-8.89a12.51107,12.51107 0 0 0 7.48975,-16.01z"/>
  <path id="svg_19" fill="#00bfa6" d="m382.5898,113.13027l-242,0a8.502,8.502 0 0 0 -7.15967,3.93a8.4141,8.4141 0 0 0 -1.34033,4.57l0,162.96l69.69043,31.59l9.81982,4.45l15.50977,7.03a7.02024,7.02024 0 0 0 5.78027,0l15.50977,-7.03l48.54,-22l45.24023,-20.51l48.90967,-22.16l0,-134.33a8.50539,8.50539 0 0 0 -8.49996,-8.5z"/>
  <path id="svg_20" fill="#fff" d="m332.5898,227.13027l-142,0a12.4967,12.4967 0 0 0 -12.48,12.01a4.01078,4.01078 0 0 0 -0.02,0.49a12.51761,12.51761 0 0 0 12.5,12.5l142,0a12.5,12.5 0 0 0 0,-25z"/>
  <path id="svg_21" fill="#fff" d="m340.68013,276.61025a12.41094,12.41094 0 0 0 -8.09033,-2.98l-142,0a12.5,12.5 0 0 0 0,25l106.3501,0l45.24023,-20.51a12.58317,12.58317 0 0 0 -1.5,-1.51z"/>
  <path id="svg_22" fill="#fff" d="m211.60005,320.63027l15.50977,7.03a7.02024,7.02024 0 0 0 5.78027,0l15.50977,-7.03l-36.79981,0z"/>
  <path id="svg_23" fill="#fff" d="m300.83003,173.84023a12.506,12.506 0 0 0 -11.74023,-8.21l-55,0a12.50937,12.50937 0 0 0 -11.37988,7.34a12.35787,12.35787 0 0 0 -1.12012,5.16a12.51761,12.51761 0 0 0 12.5,12.5l55,0a12.49876,12.49876 0 0 0 11.74023,-16.79z"/>
  <path id="svg_24" fill="#3f3d56" d="m292.0898,298.63027l-48.54,22l-11.48975,5.21a5.0163,5.0163 0 0 1 -4.12011,0l-11.48975,-5.21l-4.8501,0l15.50977,7.03a7.02024,7.02024 0 0 0 5.78027,0l15.50977,-7.03l48.54,-22l-4.8501,0zm0,0l-48.54,22l-11.48975,5.21a5.0163,5.0163 0 0 1 -4.12011,0l-11.48975,-5.21l-4.8501,0l15.50977,7.03a7.02024,7.02024 0 0 0 5.78027,0l15.50977,-7.03l48.54,-22l-4.8501,0zm0,0l-48.54,22l-11.48975,5.21a5.0163,5.0163 0 0 1 -4.12011,0l-11.48975,-5.21l-4.8501,0l15.50977,7.03a7.02024,7.02024 0 0 0 5.78027,0l15.50977,-7.03l48.54,-22l-4.8501,0zm162.91016,-68.79a7.63845,7.63845 0 0 0 -1.21,-0.98a6.96066,6.96066 0 0 0 -6.68018,-0.49l-106.42969,48.24l-48.59033,22.02l-48.54,22l-11.48975,5.21a5.0163,5.0163 0 0 1 -4.12011,0l-11.48975,-5.21l-11.97021,-5.43l-72.37012,-32.79l-0.02,-0.00995l-19.73,-8.95l-58.90967,-26.7l-40.56006,-18.38a6.10738,6.10738 0 0 0 -1.29,-0.43a6.70854,6.70854 0 0 0 -2.99023,-0.06a7.017,7.017 0 0 0 -5.60986,6.86l0,251.13a7.00778,7.00778 0 0 0 7,7l440,0a7.00778,7.00778 0 0 0 7,-7l0,-251.13a6.97174,6.97174 0 0 0 -2.00004,-4.90009l0,0.00004zm0,256.03a5.002,5.002 0 0 1 -5,5l-440,0a5.002,5.002 0 0 1 -5,-5l0,-251.13a5.00087,5.00087 0 0 1 2.29,-4.2a5.1681,5.1681 0 0 1 1.60986,-0.68a4.51064,4.51064 0 0 1 0.51025,-0.08a3.89766,3.89766 0 0 1 0.58985,-0.04a4.96993,4.96993 0 0 1 2.06,0.45l42.33985,19.19l58.56006,26.54l16.46,7.46l2.66992,1.21l69.69043,31.59l9.81982,4.45l15.50977,7.03a7.02024,7.02024 0 0 0 5.78027,0l15.50977,-7.03l48.54,-22l45.24023,-20.51l105.75977,-47.93a5.00053,5.00053 0 0 1 4.77,0.35a1.86108,1.86108 0 0 1 0.23,0.16a1.2473,1.2473 0 0 1 0.22021,0.18a4.95928,4.95928 0 0 1 1.83985,3.86l0.00009,251.13zm-162.91016,-187.24l-48.54,22l-11.48975,5.21a5.0163,5.0163 0 0 1 -4.12011,0l-11.48975,-5.21l-4.8501,0l15.50977,7.03a7.02024,7.02024 0 0 0 5.78027,0l15.50977,-7.03l48.54,-22l-4.8501,0zm0,0l-48.54,22l-11.48975,5.21a5.0163,5.0163 0 0 1 -4.12011,0l-11.48975,-5.21l-4.8501,0l15.50977,7.03a7.02024,7.02024 0 0 0 5.78027,0l15.50977,-7.03l48.54,-22l-4.8501,0zm-162.66992,-15.25l2.66992,1.21l0,-2.18l-2.66992,0.97zm162.66992,15.25l-48.54,22l-11.48975,5.21a5.0163,5.0163 0 0 1 -4.12011,0l-11.48975,-5.21l-4.8501,0l15.50977,7.03a7.02024,7.02024 0 0 0 5.78027,0l15.50977,-7.03l48.54,-22l-4.8501,0z"/>
  <rect id="svg_30" height="1" width="0" y="320.93513" x="-121.22324" stroke="#000" fill="#fff"/>
 </g>
</svg>