<svg width="452.92239" height="241.27794" xmlns="http://www.w3.org/2000/svg" data-name="Layer 1">

 <g>
  <title>Layer 1</title>
  <path id="svg_14" fill="#3f3d56" d="m439.00001,240.99998l-430,0a9.01015,9.01015 0 0 1 -9,-9l0,-223a9.01047,9.01047 0 0 1 9,-9l430,0a9.01016,9.01016 0 0 1 9,9l0,223a9.00984,9.00984 0 0 1 -9,9zm-430,-239a7.00786,7.00786 0 0 0 -7,7l0,223a7.00818,7.00818 0 0 0 7,7l430,0a7.0085,7.0085 0 0 0 7,-7l0,-223a7.00818,7.00818 0 0 0 -7,-7l-430,0z"/>
  <path id="svg_15" fill="#3f3d56" d="m140.00001,106.49998l-68,0a9.01047,9.01047 0 0 1 -9,-9l0,-56a9.01047,9.01047 0 0 1 9,-9l68,0a9.01016,9.01016 0 0 1 9,9l0,56a9.01016,9.01016 0 0 1 -9,9zm-68,-72a7.00786,7.00786 0 0 0 -7,7l0,56a7.00786,7.00786 0 0 0 7,7l68,0a7.00818,7.00818 0 0 0 7,-7l0,-56a7.00818,7.00818 0 0 0 -7,-7l-68,0z"/>
  <path id="svg_16" fill="#e6e6e6" d="m59.50001,127.49998a6.5,6.5 0 0 0 0,13l329,0a6.5,6.5 0 0 0 0,-13l-329,0z"/>
  <path id="svg_17" fill="#00bfa6" d="m170.50001,59.49998a6.5,6.5 0 0 0 0,13l141,0a6.5,6.5 0 0 0 0,-13l-141,0z"/>
  <path id="svg_18" fill="#00bfa6" d="m170.50001,93.49998a6.5,6.5 0 0 0 0,13l215,0a6.5,6.5 0 0 0 0,-13l-215,0z"/>
  <path id="svg_19" fill="#e6e6e6" d="m59.50001,161.49998a6.5,6.5 0 0 0 0,13l329,0a6.5,6.5 0 0 0 0,-13l-329,0z"/>
  <path id="svg_20" fill="#e6e6e6" d="m59.50001,195.49998a6.5,6.5 0 0 0 0,13l329,0a6.5,6.5 0 0 0 0,-13l-329,0z"/>
  <circle id="svg_21" fill="#ccc" r="27.80426" cy="69.63134" cx="105.19574"/>
  <circle id="svg_22" fill="#e6e6e6" r="20.69398" cy="79.68227" cx="105.91887"/>
  <path id="svg_23" fill="#ccc" d="m85.27494,66.48516a61.54115,61.54115 0 0 0 26.624,8.77259l-2.80641,-3.36263a20.6234,20.6234 0 0 0 6.37063,1.265a6.97688,6.97688 0 0 0 5.68685,-2.66177a6.48959,6.48959 0 0 0 0.43439,-5.99481a12.29159,12.29159 0 0 0 -3.86678,-4.835a23.021,23.021 0 0 0 -21.4267,-3.82935a13.75878,13.75878 0 0 0 -6.39955,4.10509a7.7817,7.7817 0 0 0 -1.5693,7.213"/>
 </g>
</svg>