<svg width="1606" height="1662.95" xmlns="http://www.w3.org/2000/svg" xmlns:xlink="http://www.w3.org/1999/xlink">
 <title>Building</title>

 <g>
  <title>background</title>
  <rect fill="none" id="canvas_background" height="1664.95" width="1608" y="-1" x="-1"/>
 </g>
 <g>
  <title>Layer 1</title>
  <ellipse stroke="null" ry="750.002365" rx="785.002485" id="svg_379" cy="832.389082" cx="805.998522" stroke-opacity="null" stroke-width="null" fill="#3baa98"/>
  <ellipse stroke="null" ry="677.002165" rx="702.002192" id="svg_378" cy="831.389043" cx="796.998462" stroke-opacity="null" stroke-width="null" fill="#32c1a9"/>
  <ellipse stroke="null" ry="577.001815" rx="590.001861" id="svg_376" cy="835.389053" cx="798.998521" stroke-opacity="null" stroke-width="null" fill="#59e5d2"/>
  <circle id="svg_1" fill="#ff5252" r="78.110001" cy="431.111028" cx="986.890305"/>
  <rect id="svg_2" fill="#00bfa6" height="503" width="641" y="484.951028" x="421.500305"/>
  <rect id="svg_3" opacity="0.1" height="503" width="641" y="484.951028" x="421.500305"/>
  <rect x="288.000305" id="svg_4" fill="#464353" height="437" width="907" y="553.951028"/>
  <rect id="svg_5" fill="#0da591" height="592" width="530" y="432.951028" x="477.000305"/>
  <rect id="svg_6" fill="#00bfa6" height="72" width="112" y="612.951028" x="325.000305"/>
  <rect id="svg_7" fill="#00bfa6" height="72" width="112" y="734.951028" x="325.000305"/>
  <rect id="svg_8" fill="#00bfa6" height="72" width="112" y="856.951028" x="325.000305"/>
  <rect id="svg_9" fill="#464353" height="72" width="112" y="490.951028" x="545.000305"/>
  <rect id="svg_10" fill="#464353" height="72" width="112" y="612.951028" x="545.000305"/>
  <rect id="svg_11" fill="#464353" height="72" width="112" y="734.951028" x="545.000305"/>
  <rect id="svg_15" fill="#00bfa6" height="72" width="112" y="612.951028" x="1038.000305"/>
  <rect id="svg_16" fill="#00bfa6" height="72" width="112" y="734.951028" x="1038.000305"/>
  <rect id="svg_17" fill="#00bfa6" height="72" width="112" y="856.951028" x="1038.000305"/>
  <rect id="svg_18" fill="#464353" height="192" width="98" y="832.951028" x="693.000305"/>
  <rect id="svg_19" opacity="0.1" height="22" width="112" y="490.951028" x="545.000305"/>
  <rect id="svg_20" opacity="0.1" height="22" width="112" y="490.951028" x="827.000305"/>
  <rect id="svg_21" opacity="0.1" height="22" width="112" y="612.951028" x="827.000305"/>
  <rect id="svg_22" opacity="0.1" height="22" width="112" y="734.951028" x="827.000305"/>
  <rect id="svg_23" opacity="0.1" height="22" width="112" y="612.951028" x="545.000305"/>
  <rect id="svg_24" opacity="0.1" height="22" width="112" y="734.951028" x="545.000305"/>
  <rect id="svg_25" opacity="0.1" height="17" width="112" y="612.951028" x="325.000305"/>
  <rect id="svg_26" opacity="0.1" height="17" width="112" y="734.951028" x="325.000305"/>
  <rect id="svg_27" opacity="0.1" height="17" width="112" y="856.951028" x="325.000305"/>
  <rect id="svg_28" opacity="0.1" height="17" width="112" y="612.951028" x="1038.000305"/>
  <rect id="svg_29" opacity="0.1" height="17" width="112" y="734.951028" x="1038.000305"/>
  <rect id="svg_30" opacity="0.1" height="17" width="112" y="856.951028" x="1038.000305"/>
  <defs>
   <linearGradient id="svg_368" x1="0.49998" y1="1.000401" x2="0.49998" y2="0.000017">
    <stop offset="0" stop-color="gray" stop-opacity="0.25"/>
    <stop offset="0.54" stop-color="gray" stop-opacity="0.12"/>
    <stop offset="1" stop-color="gray" stop-opacity="0.1"/>
   </linearGradient>
   <linearGradient id="svg_223" x1="636.31" y1="530.98" x2="663.62" y2="530.98" xlink:href="#svg_368"/>
  </defs>
  <g stroke="null" id="svg_372">
   <g stroke="null" transform="matrix(0.8213611154144805,0,0,0.8446139588010829,-6360.73227402792,-4596.478690021875) " id="svg_370">
    <title stroke="null" transform="translate(-535.6979370117188,35.51930236816406) translate(350.63861083984375,213.1157989501953) translate(309.2437744140625,127.8694839477539) translate(13.392404556274414,41.439048767089844) translate(0,-2.6638479232788086) translate(-1232.302734375,-515.1194458007812) translate(91.09764099121094,171.7064666748047) translate(212.00906372070312,287.27813720703125) translate(352.79632568359375,-224.5392303466797) translate(364.39056396484375,503.562255859375) translate(1662.21630859375,1070.221435546875) translate(-1978.037353515625,-1132.8074951171875) translate(307.510009765625,375.5163269042969) translate(191.15487670898438,166.89613342285156) translate(-2947.970947265625,-3153.047119140625) translate(11058.7392578125,0) translate(0,8213.8603515625) ">background</title>
    <rect stroke="null" x="8218.179865" y="6177.807603" width="582" height="402" id="svg_367" fill="none"/>
   </g>
   <g stroke="null" transform="matrix(0.8213611154144805,0,0,0.8446139588010829,-6360.73227402792,-4596.478690021875) " id="svg_371">
    <title stroke="null" transform="translate(-535.6979370117188,35.51930236816406) translate(350.63861083984375,213.1157989501953) translate(309.2437744140625,127.8694839477539) translate(13.392404556274414,41.439048767089844) translate(0,-2.6638479232788086) translate(-1232.302734375,-515.1194458007812) translate(91.09764099121094,171.7064666748047) translate(212.00906372070312,287.27813720703125) translate(352.79632568359375,-224.5392303466797) translate(364.39056396484375,503.562255859375) translate(1662.21630859375,1070.221435546875) translate(-1978.037353515625,-1132.8074951171875) translate(307.510009765625,375.5163269042969) translate(191.15487670898438,166.89613342285156) translate(-2947.970947265625,-3153.047119140625) translate(11058.7392578125,0) translate(0,8213.8603515625) ">Layer 1</title>
    <ellipse stroke="null" cx="8460.219865" cy="6863.247603" rx="170.69" ry="18.88" fill="#00bfa6" opacity="0.1" id="svg_366"/>
    <path stroke="null" d="m9298.349865,6730.027603c-26.56,54.81 -80.52,91.46 -136.42,115.63c-75.27,32.55 -158.16,45.46 -239.91,40q-21.5,-1.42 -42.85,-4.57a540.44,540.44 0 0 1 -143.27,-41.76q-19.7,-8.9 -38.7,-19.36a494.85,494.85 0 0 1 -60.46,-39.54q-7.23,-5.52 -14.26,-11.32c-3.25,-2.68 -6.47,-5.42 -9.74,-8.08c-6.9,-5.61 -14,-10.94 -21.92,-14.93a78.31,78.31 0 0 0 -7.34,-3.24c-25.08,-9.54 -54,-5.94 -80.11,1.5c-19.84,5.61 -39.17,13.36 -59.04,18.89a196,196 0 0 1 -26.91,5.72a143.21,143.21 0 0 1 -60.49,-5.27l-1.67,-0.52q-4.2,-1.32 -8.33,-2.89l-1.67,-0.64q-4,-1.54 -7.83,-3.31l-1.67,-0.76q-4,-1.86 -7.83,-3.93c-0.92,-0.48 -1.83,-1 -2.73,-1.49a163.67,163.67 0 0 1 -39.16,-30.49c-0.33,-0.33 -0.64,-0.67 -1,-1c-1.59,-1.72 -3.15,-3.47 -4.66,-5.26c-0.56,-0.66 -1.12,-1.32 -1.67,-2q-2.69,-3.29 -5.19,-6.71c-0.25,-0.33 -0.49,-0.67 -0.73,-1a144.59,144.59 0 0 1 -16.87,-30.5c-0.14,-0.33 -0.27,-0.67 -0.39,-1q-2,-5.15 -3.65,-10.47c-0.45,-1.48 -0.88,-3 -1.26,-4.48c-0.13,-0.44 -0.25,-0.89 -0.36,-1.33c-5.47,-21.72 -6.06,-44.31 -6.06,-66.77q0,-3.93 0,-7.85c0.16,-36.33 0.72,-73.28 6.08,-109.11c0,-0.25 0.07,-0.5 0.11,-0.74a340.76,340.76 0 0 1 7.31,-35.82a264.25,264.25 0 0 1 12.31,-36.3c12.33,-29 30.26,-55.39 50.17,-79.85c50.1,-61.51 115.87,-113.22 192.85,-132.51c82.95,-20.83 175.14,-0.87 242.05,52.4c20.4,16.24 38.73,35.47 61.64,47.92c20,10.84 43.41,15.33 64.83,6.8c17.7,-7 29.22,-10.55 49.1,-9.48a411.56,411.56 0 0 1 120.36,25.19c1.56,0.57 3.12,1.16 4.67,1.75c100.71,38.55 187.3,115.1 232.28,213.47q1.79,3.9 3.47,7.86c26.83,62.62 36.51,136.09 6.92,197.15z" fill="#00bfa6" opacity="0.1" id="svg_365"/>
    <path stroke="null" d="m8444.329865,6384.087603l0,379.16a196,196 0 0 1 -26.91,5.72a143.21,143.21 0 0 1 -60.49,-5.27l-1.67,-0.52q-4.2,-1.32 -8.33,-2.89l-1.67,-0.64q-4,-1.54 -7.83,-3.31l-1.67,-0.76q-4,-1.86 -7.83,-3.93c-0.92,-0.48 -1.83,-1 -2.73,-1.49a163.67,163.67 0 0 1 -39.16,-30.49c-0.33,-0.33 -0.64,-0.67 -1,-1c-1.59,-1.72 -3.15,-3.47 -4.66,-5.26c-0.56,-0.66 -1.12,-1.32 -1.67,-2q-2.69,-3.29 -5.19,-6.71c-0.25,-0.33 -0.49,-0.67 -0.73,-1a144.59,144.59 0 0 1 -16.87,-30.5c-0.14,-0.33 -0.27,-0.67 -0.39,-1q-2,-5.15 -3.65,-10.47c-0.45,-1.48 -0.88,-3 -1.26,-4.48c-0.13,-0.44 -0.25,-0.89 -0.36,-1.33c-5.47,-21.72 -6.06,-44.31 -6.06,-66.77q0,-3.93 0,-7.85c0.16,-36.33 0.72,-73.28 6.08,-109.11c0,-0.25 0.07,-0.5 0.11,-0.74a340.76,340.76 0 0 1 7.31,-35.82l102.09,0l0,-51.54l20.41,0l0,-41.39l43.82,0l0,41.39l20.31,0z" fill="#00bfa6" opacity="0.1" id="svg_364"/>
    <path stroke="null" d="m9298.349865,6730.027603c-26.56,54.81 -80.52,91.46 -136.42,115.63c-75.27,32.55 -158.16,45.46 -239.91,40q-21.5,-1.42 -42.85,-4.57a540.44,540.44 0 0 1 -143.27,-41.76q-19.7,-8.9 -38.7,-19.36a494.85,494.85 0 0 1 -60.46,-39.54q-7.23,-5.52 -14.26,-11.32c-3.25,-2.68 -6.47,-5.42 -9.74,-8.08c-6.9,-5.61 -14,-10.94 -21.92,-14.93a78.31,78.31 0 0 0 -7.34,-3.24l0,-155.16l185.59,0l0,34.53l81.45,0l0,-252.58l95.87,0l0,101l47.42,0l0,-59.8l39.18,0l0,-63.88l18,0l0,-37.22c1.56,0.57 3.12,1.16 4.67,1.75l0,35.47l17.54,0l0,63.92l39.17,0l0,59.8l57.73,0l0,227.83l91.76,0l0,-165.69l29.57,0c26.83,62.67 36.51,136.14 6.92,197.2z" fill="#00bfa6" opacity="0.1" id="svg_363"/>
    <rect stroke="null" x="8879.169865" y="6407.647603" width="42.85" height="42.85" fill="#00bfa6" opacity="0.1" id="svg_362"/>
    <rect stroke="null" x="8879.169865" y="6496.477603" width="42.85" height="42.85" fill="#00bfa6" opacity="0.1" id="svg_361"/>
    <rect stroke="null" x="8879.169865" y="6585.297603" width="42.85" height="42.85" fill="#00bfa6" opacity="0.1" id="svg_360"/>
    <rect stroke="null" x="8879.169865" y="6674.127603" width="42.85" height="42.85" fill="#00bfa6" opacity="0.1" id="svg_359"/>
    <rect stroke="null" x="8879.169865" y="6762.957603" width="42.85" height="42.85" fill="#00bfa6" opacity="0.1" id="svg_358"/>
    <path stroke="null" d="m8922.019865,6851.777603l0,33.84q-21.5,-1.42 -42.85,-4.57l0,-29.27l42.85,0z" fill="#00bfa6" opacity="0.1" id="svg_357"/>
    <rect stroke="null" x="8597.609865" y="6643.077603" width="149.99" height="19.41" fill="#00bfa6" opacity="0.1" id="svg_356"/>
    <rect stroke="null" x="8597.609865" y="6702.017603" width="149.99" height="19.41" fill="#00bfa6" opacity="0.1" id="svg_355"/>
    <path stroke="null" d="m8747.599865,6760.967603l0,19.4l-110.84,0q-7.23,-5.52 -14.26,-11.32c-3.25,-2.68 -6.47,-5.42 -9.74,-8.08l134.84,0z" fill="#00bfa6" opacity="0.1" id="svg_354"/>
    <path stroke="null" d="m8747.599865,6819.967603l0,19.41l-11.7,0q-19.7,-8.95 -38.7,-19.41l50.4,0z" fill="#00bfa6" opacity="0.1" id="svg_353"/>
    <rect stroke="null" x="8993.589865" y="6523.677603" width="27.89" height="27.89" fill="#00bfa6" opacity="0.1" id="svg_352"/>
    <rect stroke="null" x="8389.589865" y="6393.697603" width="27.89" height="27.89" fill="#00bfa6" opacity="0.1" id="svg_351"/>
    <rect stroke="null" x="8389.589865" y="6458.497603" width="27.89" height="27.89" fill="#00bfa6" opacity="0.1" id="svg_350"/>
    <rect stroke="null" x="8389.589865" y="6523.297603" width="27.89" height="27.89" fill="#00bfa6" opacity="0.1" id="svg_349"/>
    <rect stroke="null" x="8389.589865" y="6588.087603" width="27.89" height="27.89" fill="#00bfa6" opacity="0.1" id="svg_348"/>
    <rect stroke="null" x="8389.589865" y="6652.887603" width="27.89" height="27.89" fill="#00bfa6" opacity="0.1" id="svg_347"/>
    <rect stroke="null" x="8389.589865" y="6717.687603" width="27.89" height="27.89" fill="#00bfa6" opacity="0.1" id="svg_346"/>
    <rect stroke="null" x="9100.089865" y="6523.677603" width="27.89" height="27.89" fill="#00bfa6" opacity="0.1" id="svg_345"/>
    <rect stroke="null" x="8993.589865" y="6592.487603" width="27.89" height="27.89" fill="#00bfa6" opacity="0.1" id="svg_344"/>
    <rect stroke="null" x="9100.089865" y="6592.487603" width="27.89" height="27.89" fill="#00bfa6" opacity="0.1" id="svg_343"/>
    <rect stroke="null" x="8993.589865" y="6661.287603" width="27.89" height="27.89" fill="#00bfa6" opacity="0.1" id="svg_342"/>
    <rect stroke="null" x="9100.089865" y="6661.287603" width="27.89" height="27.89" fill="#00bfa6" opacity="0.1" id="svg_341"/>
    <rect stroke="null" x="8993.589865" y="6730.097603" width="27.89" height="27.89" fill="#00bfa6" opacity="0.1" id="svg_340"/>
    <rect stroke="null" x="9100.089865" y="6730.097603" width="27.89" height="27.89" fill="#00bfa6" opacity="0.1" id="svg_339"/>
    <rect stroke="null" x="8993.589865" y="6798.907603" width="27.89" height="27.89" fill="#00bfa6" opacity="0.1" id="svg_338"/>
    <rect stroke="null" x="9100.089865" y="6798.907603" width="27.89" height="27.89" fill="#00bfa6" opacity="0.1" id="svg_337"/>
    <polygon stroke="null" points="8993.591125488281,6885.697036743164 8993.591125488281,6867.707290649414 9021.479797363281,6867.707290649414 9021.479797363281,6883.137466430664 8993.591125488281,6885.697036743164 " fill="#00bfa6" opacity="0.1" id="svg_336"/>
    <path stroke="null" d="m8250.259865,6471.447603l0,16l106.67,0l0,-16l-106.67,0zm116.17,15l-114.5,0l0,-14l7.83,0l106.67,14zm9.5,0l-114.5,0l0,-14l7.83,0l106.67,14zm9.5,0l-114.5,0l0,-14l7.83,0l106.67,14zm9.5,0l-114.5,0l0,-14l7.83,0l106.67,14zm9.5,0l-7.83,0l0,-14l7.83,0l0,14zm9.5,0l-7.83,0l0,-14l7.83,0l0,14zm9.5,0l-7.83,0l0,-14l7.83,0l0,14zm9.5,0l-7.83,0l0,-14l7.83,0l0,14zm9.5,0l-7.83,0l0,-14l7.83,0l0,14zm9.5,0l-7.83,0l0,-14l7.83,0l0,14zm10,0l-8.33,0l0,-14l8.33,0l0,14z" fill="#00bfa6" opacity="0.1" id="svg_335"/>
    <path stroke="null" d="m8250.259865,6517.907603l0,15.95l106.67,0l0,-15.95l-106.67,0zm116.17,14.95l-114.5,0l0,-13.95l7.83,0l106.67,13.95zm9.5,0l-114.5,0l0,-13.95l7.83,0l106.67,13.95zm9.5,0l-114.5,0l0,-13.95l7.83,0l106.67,13.95zm9.5,0l-114.5,0l0,-13.95l7.83,0l106.67,13.95zm9.5,0l-7.83,0l0,-13.95l7.83,0l0,13.95zm9.5,0l-7.83,0l0,-13.95l7.83,0l0,13.95zm9.5,0l-7.83,0l0,-13.95l7.83,0l0,13.95zm9.5,0l-7.83,0l0,-13.95l7.83,0l0,13.95zm9.5,0l-7.83,0l0,-13.95l7.83,0l0,13.95zm9.5,0l-7.83,0l0,-13.95l7.83,0l0,13.95zm10,0l-8.33,0l0,-13.95l8.33,0l0,13.95z" fill="#00bfa6" opacity="0.1" id="svg_334"/>
    <path stroke="null" d="m8250.259865,6564.357603l0,15.95l106.67,0l0,-15.95l-106.67,0zm116.17,14.95l-114.5,0l0,-13.95l7.83,0l106.67,13.95zm9.5,0l-114.5,0l0,-13.95l7.83,0l106.67,13.95zm9.5,0l-114.5,0l0,-13.95l7.83,0l106.67,13.95zm9.5,0l-114.5,0l0,-13.95l7.83,0l106.67,13.95zm9.5,0l-7.83,0l0,-13.95l7.83,0l0,13.95zm9.5,0l-7.83,0l0,-13.95l7.83,0l0,13.95zm9.5,0l-7.83,0l0,-13.95l7.83,0l0,13.95zm9.5,0l-7.83,0l0,-13.95l7.83,0l0,13.95zm9.5,0l-7.83,0l0,-13.95l7.83,0l0,13.95zm9.5,0l-7.83,0l0,-13.95l7.83,0l0,13.95zm10,0l-8.33,0l0,-13.95l8.33,0l0,13.95z" fill="#00bfa6" opacity="0.1" id="svg_333"/>
    <path stroke="null" d="m8250.259865,6610.807603l0,16l106.67,0l0,-16l-106.67,0zm116.17,15l-114.5,0l0,-14l7.83,0l106.67,14zm9.5,0l-114.5,0l0,-14l7.83,0l106.67,14zm9.5,0l-114.5,0l0,-14l7.83,0l106.67,14zm9.5,0l-114.5,0l0,-14l7.83,0l106.67,14zm9.5,0l-7.83,0l0,-14l7.83,0l0,14zm9.5,0l-7.83,0l0,-14l7.83,0l0,14zm9.5,0l-7.83,0l0,-14l7.83,0l0,14zm9.5,0l-7.83,0l0,-14l7.83,0l0,14zm9.5,0l-7.83,0l0,-14l7.83,0l0,14zm9.5,0l-7.83,0l0,-14l7.83,0l0,14zm10,0l-8.33,0l0,-14l8.33,0l0,14z" fill="#00bfa6" opacity="0.1" id="svg_332"/>
    <path stroke="null" d="m8250.669865,6657.257603c0.38,1.5 0.81,3 1.26,4.48l0,-3.48l7.83,0l0,14l-4.18,0c0.12,0.33 0.25,0.67 0.39,1l101,0l0,-16l-106.3,0zm124.89,15l-114.13,0l0,-14l7.83,0l106.3,14zm9.5,0l-114.13,0l0,-14l7.83,0l106.3,14zm9.5,0l-114.13,0l0,-14l7.83,0l106.3,14zm9.5,0l-7.83,0l0,-14l7.83,0l0,14zm9.5,0l-7.83,0l0,-14l7.83,0l0,14zm9.5,0l-7.83,0l0,-14l7.83,0l0,14zm9.5,0l-7.83,0l0,-14l7.83,0l0,14zm9.5,0l-7.83,0l0,-14l7.83,0l0,14zm9.5,0l-7.83,0l0,-14l7.83,0l0,14zm10,0l-8.33,0l0,-14l8.33,0l0,14z" fill="#00bfa6" opacity="0.1" id="svg_331"/>
    <path stroke="null" d="m8272.839865,6703.707603c0.24,0.33 0.48,0.67 0.73,1l5.19,0l0,6.71c0.55,0.67 1.11,1.33 1.67,2l0,-8.7l7.83,0l0,14l-3.17,0c0.31,0.33 0.62,0.67 1,1l70.89,0l0,-16l-84.14,-0.01zm109.06,15.01l-7.83,0l0,-14l7.83,0l0,14zm9.5,0l-7.83,0l0,-14l7.83,0l0,14zm9.5,0l-7.83,0l0,-14l7.83,0l0,14zm9.5,0l-7.83,0l0,-14l7.83,0l0,14zm9.5,0l-7.83,0l0,-14l7.83,0l0,14zm9.5,0l-7.83,0l0,-14l7.83,0l0,14zm10,0l-8.33,0l0,-14l8.33,0l0,14z" fill="#00bfa6" opacity="0.1" id="svg_330"/>
    <path stroke="null" d="m8325.199865,6750.157603c0.9,0.51 1.81,1 2.73,1.49l0,-0.49l7.83,0l0,4.42l1.67,0.76l0,-5.18l7.83,0l0,8.49l1.67,0.64l0,-9.13l8.33,0l0,12l1.67,0.52l0,-13.52l-31.73,0z" fill="#00bfa6" opacity="0.1" id="svg_329"/>
    <path stroke="null" d="m8654.119865,6332.967603s-23.83,-1.43 -21,15.27a4.07,4.07 0 0 0 2.11,4.29s0.05,-1.24 2.45,-0.82a10.62,10.62 0 0 0 2.59,0.13a5.35,5.35 0 0 0 3.16,-1.31l0,0s6.7,-2.77 9.31,-13.72c0,0 1.93,-2.39 1.85,-3l-4,1.72s1.37,2.9 0.29,5.31c0,0 -0.13,-5.21 -0.9,-5.08c-0.16,0 -2.09,1 -2.09,1s2.36,5.06 0.58,8.73c0,0 0.68,-6.23 -1.32,-8.36l-2.83,1.65s2.76,5.22 0.89,9.48c0,0 0.48,-6.53 -1.49,-9.08l-2.56,2s2.59,5.15 1,8.68c0,0 -0.21,-7.6 -1.57,-8.18a16,16 0 0 0 -2.59,2.79s1.78,3.74 0.68,5.71c0,0 -0.68,-5.07 -1.23,-5.09c0,0 -2.24,3.36 -2.47,5.66a12.24,12.24 0 0 1 1.93,-6a6.74,6.74 0 0 0 -3.43,1.77s0.35,-2.37 4,-2.58c0,0 1.85,-2.55 2.34,-2.7c0,0 -3.61,-0.3 -5.8,0.67c0,0 1.93,-2.24 6.46,-1.23l2.54,-2.06s-4.82,-0.65 -6.82,0.05c0,0 2.32,-2 7.45,-0.54l2.76,-1.65a25.22,25.22 0 0 0 -6.47,-0.56s2.55,-1.37 7.27,0.12l2,-0.89s-3,-0.58 -3.84,-0.67s-0.92,-0.34 -0.92,-0.34a10.32,10.32 0 0 1 5.58,0.62s4.17,-1.56 4.09,-1.79z" fill="#00bfa6" opacity="0.1" id="svg_328"/>
    <path stroke="null" d="m8591.539865,6414.197603s-8.14,22.45 8.67,24.5a4.09,4.09 0 0 0 4.72,-0.81s-1.18,-0.4 -0.09,-2.58a11.21,11.21 0 0 0 0.85,-2.45a5.37,5.37 0 0 0 -0.35,-3.4l0,0s-0.75,-7.21 -10.52,-12.82c0,0 -1.74,-2.53 -2.35,-2.63l0.51,4.34s3.17,-0.49 5.17,1.23c0,0 -5,-1.35 -5.13,-0.58c0,0.16 0.37,2.29 0.37,2.29s5.52,-0.83 8.54,1.93c0,0 -5.78,-2.42 -8.4,-1.11l0.78,3.18s5.8,-1.17 9.35,1.84c0,0 -6.13,-2.32 -9.13,-1.15l1.19,3s5.67,-1 8.61,1.5c0,0 -7.35,-2 -8.29,-0.82a15.74,15.74 0 0 0 1.94,3.27s4.09,-0.64 5.67,1c0,0 -5.05,-0.79 -5.23,-0.26c0,0 2.58,3.1 4.72,4a12.23,12.23 0 0 1 -5.19,-3.54a6.78,6.78 0 0 0 0.73,3.78s-2.18,-1 -1.34,-4.54c0,0 -1.92,-2.5 -1.93,-3c0,0 -1.31,3.37 -1,5.74c0,0 -1.61,-2.48 0.66,-6.54l-1.27,-3s-2,4.37 -1.85,6.5c0,0 -1.24,-2.78 1.6,-7.29l-0.8,-3.11a24.74,24.74 0 0 0 -2.37,6s-0.59,-2.83 2.18,-6.94l-0.29,-2.15s-1.41,2.68 -1.74,3.49s-0.58,0.79 -0.58,0.79a10.24,10.24 0 0 1 2.18,-5.17s-0.31,-4.48 -0.59,-4.49z" fill="#00bfa6" opacity="0.1" id="svg_327"/>
    <path stroke="null" d="m8749.579865,6395.287603s-8.15,22.44 8.67,24.49a4.05,4.05 0 0 0 4.71,-0.81s-1.17,-0.39 -0.09,-2.58a11.39,11.39 0 0 0 0.86,-2.44a5.41,5.41 0 0 0 -0.36,-3.41l0,0s-0.75,-7.21 -10.51,-12.82c0,0 -1.74,-2.52 -2.35,-2.63l0.5,4.35s3.19,-0.47 5.19,1.23c0,0 -5,-1.36 -5.13,-0.58c0,0.16 0.37,2.29 0.37,2.29s5.52,-0.83 8.53,1.92c0,0 -5.78,-2.42 -8.39,-1.11l0.78,3.18s5.79,-1.16 9.34,1.84c0,0 -6.13,-2.31 -9.12,-1.15l1.19,3s5.67,-1 8.61,1.49c0,0 -7.36,-2 -8.29,-0.82a15.76,15.76 0 0 0 1.94,3.28s4.09,-0.65 5.66,1c0,0 -5.05,-0.79 -5.23,-0.27c0,0 2.59,3.1 4.73,4a12.24,12.24 0 0 1 -5.19,-3.55a6.72,6.72 0 0 0 0.73,3.79s-2.18,-1 -1.35,-4.55c0,0 -1.92,-2.49 -1.92,-3c0,0 -1.32,3.37 -1,5.75c0,0 -1.6,-2.48 0.66,-6.54l-1.26,-3s-2,4.37 -1.86,6.51c0,0 -1.24,-2.79 1.6,-7.3l-0.79,-3.11a24.93,24.93 0 0 0 -2.37,6s-0.6,-2.83 2.17,-6.94l-0.29,-2.14s-1.4,2.68 -1.74,3.49s-0.57,0.78 -0.57,0.78a10.28,10.28 0 0 1 2.17,-5.17s-0.33,-4.47 -0.6,-4.47z" fill="#00bfa6" opacity="0.1" id="svg_326"/>
    <path stroke="null" d="m8523.669865,6578.767603s-8.14,22.45 8.67,24.49a4.07,4.07 0 0 0 4.72,-0.81s-1.18,-0.39 -0.09,-2.57a10.87,10.87 0 0 0 0.85,-2.45a5.4,5.4 0 0 0 -0.35,-3.41l0,0s-0.75,-7.21 -10.51,-12.82c0,0 -1.75,-2.52 -2.36,-2.63l0.51,4.35s3.17,-0.49 5.18,1.23c0,0 -5,-1.36 -5.14,-0.58c0,0.16 0.37,2.29 0.37,2.29s5.52,-0.83 8.54,1.92c0,0 -5.78,-2.42 -8.4,-1.11l0.79,3.18s5.79,-1.16 9.34,1.84c0,0 -6.13,-2.31 -9.13,-1.15l1.19,3s5.67,-1 8.61,1.49c0,0 -7.35,-2 -8.29,-0.82a15.45,15.45 0 0 0 1.95,3.28s4.08,-0.65 5.66,1c0,0 -5.05,-0.79 -5.23,-0.27c0,0 2.58,3.1 4.72,4a12.24,12.24 0 0 1 -5.18,-3.55a6.77,6.77 0 0 0 0.72,3.79s-2.17,-1 -1.34,-4.55c0,0 -1.92,-2.49 -1.93,-3c0,0 -1.31,3.38 -1,5.75c0,0 -1.6,-2.48 0.66,-6.54l-1.26,-3s-2,4.37 -1.86,6.51c0,0 -1.24,-2.79 1.6,-7.29l-0.8,-3.12a24.93,24.93 0 0 0 -2.37,6s-0.59,-2.83 2.18,-6.94l-0.29,-2.14s-1.41,2.68 -1.74,3.49s-0.58,0.78 -0.58,0.78a10.35,10.35 0 0 1 2.18,-5.17s-0.31,-4.47 -0.59,-4.47z" fill="#00bfa6" opacity="0.1" id="svg_325"/>
    <path stroke="null" d="m8491.349865,6367.167603s-8.15,22.45 8.66,24.5a4.09,4.09 0 0 0 4.72,-0.81s-1.17,-0.4 -0.09,-2.58a10.7,10.7 0 0 0 0.85,-2.45a5.41,5.41 0 0 0 -0.35,-3.41l0,0s-0.75,-7.21 -10.51,-12.81c0,0 -1.74,-2.53 -2.36,-2.63l0.51,4.34s3.17,-0.49 5.18,1.23c0,0 -5,-1.35 -5.13,-0.58c0,0.16 0.37,2.29 0.37,2.29s5.51,-0.83 8.53,1.92c0,0 -5.78,-2.41 -8.39,-1.11l0.78,3.19s5.79,-1.17 9.34,1.84c0,0 -6.13,-2.32 -9.12,-1.16l1.19,3s5.67,-1 8.6,1.49c0,0 -7.35,-2 -8.29,-0.81a15.43,15.43 0 0 0 1.95,3.27s4.08,-0.64 5.66,1c0,0 -5.05,-0.79 -5.23,-0.26c0,0 2.59,3.1 4.72,4a12.17,12.17 0 0 1 -5.18,-3.54a6.69,6.69 0 0 0 0.73,3.78s-2.18,-1 -1.35,-4.54c0,0 -1.92,-2.5 -1.93,-3c0,0 -1.31,3.38 -1,5.75c0,0 -1.6,-2.48 0.66,-6.54l-1.26,-3s-2,4.37 -1.86,6.5c0,0 -1.24,-2.78 1.6,-7.29l-0.8,-3.11a25.18,25.18 0 0 0 -2.37,6s-0.59,-2.84 2.18,-6.94l-0.29,-2.15s-1.4,2.68 -1.74,3.49s-0.58,0.78 -0.58,0.78a10.35,10.35 0 0 1 2.18,-5.17s-0.31,-4.47 -0.58,-4.48z" fill="#00bfa6" opacity="0.1" id="svg_324"/>
    <path stroke="null" d="m8551.779865,6489.377603s6.29,23 21.2,15a4.08,4.08 0 0 0 3.39,-3.38s-1.19,0.36 -1.56,-2.05a11.81,11.81 0 0 0 -0.71,-2.5a5.46,5.46 0 0 0 -2.26,-2.58l0,0s-4.77,-5.45 -16,-4.41c0,0 -2.88,-1.06 -3.43,-0.79l2.91,3.26s2.31,-2.23 4.94,-2c0,0 -4.89,1.79 -4.52,2.48c0.07,0.15 1.62,1.66 1.62,1.66s4,-3.86 8.08,-3.35c0,0 -6.12,1.36 -7.5,3.93l2.48,2.16s4.05,-4.3 8.69,-3.89c0,0 -6.34,1.64 -8.12,4.32l2.72,1.79s4,-4.11 7.89,-3.75c0,0 -7.14,2.64 -7.24,4.11a15.4,15.4 0 0 0 3.47,1.56s3,-2.88 5.19,-2.47c0,0 -4.58,2.26 -4.43,2.8c0,0 3.9,1 6.15,0.52a12.14,12.14 0 0 1 -6.28,0.09a6.79,6.79 0 0 0 2.78,2.68s-2.36,0.43 -3.72,-2.94c0,0 -3,-0.93 -3.31,-1.35c0,0 0.87,3.51 2.49,5.27c0,0 -2.74,-1.1 -3.23,-5.72l-2.77,-1.74s0.91,4.71 2.24,6.39c0,0 -2.62,-1.56 -2.9,-6.88l-2.45,-2.08a24.78,24.78 0 0 0 1.55,6.3s-2.12,-2 -2.23,-6.93l-1.47,-1.58s0.4,3 0.59,3.85s0,1 0,1a10.24,10.24 0 0 1 -1.2,-5.48s-2.83,-3.46 -3.05,-3.3z" fill="#00bfa6" opacity="0.1" id="svg_323"/>
    <path stroke="null" d="m8722.409865,6509.967603s6.29,23 21.21,15a4.07,4.07 0 0 0 3.38,-3.38s-1.18,0.36 -1.56,-2.05a10.74,10.74 0 0 0 -0.71,-2.5a5.43,5.43 0 0 0 -2.25,-2.58l0,0s-4.77,-5.45 -16,-4.41c0,0 -2.88,-1.06 -3.44,-0.79l2.92,3.26s2.31,-2.23 4.94,-2c0,0 -4.89,1.79 -4.53,2.49c0.07,0.14 1.62,1.65 1.62,1.65s4,-3.86 8.08,-3.35c0,0 -6.11,1.36 -7.49,3.93l2.47,2.16s4.06,-4.3 8.69,-3.89c0,0 -6.34,1.64 -8.12,4.32l2.72,1.79s4,-4.11 7.9,-3.75c0,0 -7.14,2.64 -7.25,4.12a15.59,15.59 0 0 0 3.48,1.55s3,-2.88 5.18,-2.47c0,0 -4.58,2.27 -4.42,2.8c0,0 3.9,1 6.15,0.52a12.14,12.14 0 0 1 -6.28,0.09a6.72,6.72 0 0 0 2.78,2.68s-2.36,0.43 -3.73,-2.94c0,0 -3,-0.93 -3.31,-1.35c0,0 0.88,3.51 2.5,5.28c0,0 -2.74,-1.11 -3.23,-5.73l-2.77,-1.74s0.9,4.71 2.23,6.39c0,0 -2.62,-1.56 -2.9,-6.88l-2.44,-2.08a25.06,25.06 0 0 0 1.54,6.3s-2.12,-2 -2.22,-6.93l-1.47,-1.58s0.4,3 0.59,3.85s0,1 0,1a10.24,10.24 0 0 1 -1.2,-5.48s-2.83,-3.51 -3.06,-3.3z" fill="#00bfa6" opacity="0.1" id="svg_322"/>
    <polygon stroke="null" points="9142.149719238281,6850.838150024414 9152.221008300781,6861.467056274414 9168.190734863281,6833.328384399414 9166.751281738281,6830.167739868164 9142.149719238281,6850.838150024414 " fill="#00bfa6" id="svg_321"/>
    <polygon stroke="null" points="9142.149719238281,6850.838150024414 9152.221008300781,6861.467056274414 9168.190734863281,6833.328384399414 9166.751281738281,6830.167739868164 9142.149719238281,6850.838150024414 " opacity="0.2" id="svg_320"/>
    <path stroke="null" d="m8434.249865,6826.747603c0,53.4 -36.57,64.73 -73.22,64.73s-57.28,-45 -57.28,-98.42s29.71,-96.7 66.36,-96.7s64.14,76.99 64.14,130.39z" fill="#636780" id="svg_319"/>
    <path stroke="null" d="m8434.249865,6826.747603c0,53.4 -36.57,64.73 -73.22,64.73s-57.28,-45 -57.28,-98.42s29.71,-96.7 66.36,-96.7s64.14,76.99 64.14,130.39z" opacity="0.2" id="svg_318"/>
    <path stroke="null" d="m8408.909865,6794.777603c0,53.4 -23.54,96.7 -52.58,96.7s-53.73,-43.3 -53.73,-96.7c0,-7.38 -1.14,-14.56 -0.29,-21.46c5.31,-43.07 29,-75.23 54,-75.23c29.06,0 52.6,43.29 52.6,96.69z" fill="#636780" id="svg_317"/>
    <path stroke="null" d="m8403.669865,6559.397603s-46.09,51.68 -60.73,94.75l398,43.94l213.2,-43.94s-84.44,-101.18 -107.26,-105.09s-443.21,10.34 -443.21,10.34z" fill="#00bfa6" id="svg_316"/>
    <path stroke="null" d="m8403.669865,6559.397603s-46.09,51.68 -60.73,94.75l398,43.94l213.2,-43.94s-84.44,-101.18 -107.26,-105.09s-443.21,10.34 -443.21,10.34z" opacity="0.4" id="svg_315"/>
    <polygon stroke="null" points="8695.711242675781,6690.866958618164 8759.591125488281,6870.088150024414 8759.591125488281,6824.727310180664 8777.370422363281,6773.947036743164 8826.630187988281,6752.137466430664 8889.090148925781,6780.476821899414 8911.430969238281,6787.457778930664 8913.380187988281,6746.116958618164 8839.121398925781,6709.508071899414 8804.550109863281,6692.918228149414 8725.420227050781,6686.017837524414 8703.591125488281,6682.116958618164 8695.711242675781,6690.866958618164 " fill="#00bfa6" id="svg_314"/>
    <path stroke="null" d="m8724.199865,6709.507603l58.12,6.67c-2.64,-23.21 14.59,-23.21 14.59,-23.21l-58.14,-10.06l-27.14,0" fill="#00bfa6" id="svg_313"/>
    <path stroke="null" d="m8759.589865,6897.647603l41.2,0l119.31,-4s2.58,22.75 34,17.4c0,0 17.3,1.11 19.16,-8.29s-39.4,-96.27 -39.4,-96.27l-56.25,-42l-51,-12.38l-36.61,10.77l-23.26,37l-14.64,50.65l7.49,47.12z" fill="#636780" id="svg_312"/>
    <path stroke="null" d="m8759.589865,6897.647603l41.2,0l119.31,-4s2.58,22.75 34,17.4c0,0 17.3,1.11 19.16,-8.29s-39.4,-96.27 -39.4,-96.27l-56.25,-42l-51,-12.38l-36.61,10.77l-23.26,37l-14.64,50.65l7.49,47.12z" opacity="0.2" id="svg_311"/>
    <path stroke="null" d="m8411.689865,6571.767603c-5.9,4.82 -24.54,22.11 -40.07,58.67a8.84,8.84 0 0 0 7,12.25l93.58,12.13a14.14,14.14 0 0 0 15.56,-10.66l16.45,-67.11a6.7,6.7 0 0 0 -6.64,-8.3l-81.77,1.52a6.63,6.63 0 0 0 -4.11,1.5z" fill="#00bfa6" id="svg_310"/>
    <path stroke="null" d="m8411.689865,6571.767603c-5.9,4.82 -24.54,22.11 -40.07,58.67a8.84,8.84 0 0 0 7,12.25l93.58,12.13a14.14,14.14 0 0 0 15.56,-10.66l16.45,-67.11a6.7,6.7 0 0 0 -6.64,-8.3l-81.77,1.52a6.63,6.63 0 0 0 -4.11,1.5z" fill="#fff" opacity="0.2" id="svg_309"/>
    <path stroke="null" d="m8547.679865,6568.597603l105.38,-1c7.59,-0.07 14.39,5 16.95,12.74l32.86,74.63c2.91,8.74 -3.38,17.84 -12,17.34l-153.82,-10.13c-12.76,-0.74 -21.79,-13.75 -18.84,-27.16l11.15,-50.67c2.01,-9.16 9.57,-15.67 18.32,-15.75z" fill="#00bfa6" id="svg_308"/>
    <path stroke="null" d="m8547.679865,6568.597603l105.38,-1c7.59,-0.07 14.39,5 16.95,12.74l32.86,74.63c2.91,8.74 -3.38,17.84 -12,17.34l-153.82,-10.13c-12.76,-0.74 -21.79,-13.75 -18.84,-27.16l11.15,-50.67c2.01,-9.16 9.57,-15.67 18.32,-15.75z" fill="#fff" opacity="0.2" id="svg_307"/>
    <path stroke="null" d="m8711.489865,6567.397603c28.81,-0.52 105.16,-2.7 143.14,-11.45c0,0 65.18,49.1 84.71,86.14c0,0 -101.6,24.73 -171.77,28.08a26.59,26.59 0 0 1 -25.17,-15l-37.31,-77.32a7.26,7.26 0 0 1 6.4,-10.45z" fill="#00bfa6" id="svg_306"/>
    <path stroke="null" d="m8806.289865,6576.047603a109.53,109.53 0 0 1 90.23,36.49l0.74,0.84a14.24,14.24 0 0 1 -7.78,23.26c-25.22,5.41 -68.18,13.67 -101.34,15.27a19,19 0 0 1 -18.07,-10.72l-26.62,-55.17l62.84,-9.97z" fill="#fff" opacity="0.1" id="svg_305"/>
    <path stroke="null" d="m8759.589865,6870.087603l0,27.56l-304.66,-46.51c-14.93,-5.17 -23.84,-2 -23.84,-2c-11,-5.37 -19,-26.32 -19.23,-27l0,0l5.75,-16.65l-46.7,-77.24l-62.13,2.58c9.77,-78.11 37.9,-81.84 37.9,-81.84l365,33.88l47.91,187.22z" fill="#00bfa6" id="svg_304"/>
    <path stroke="null" d="m8693.929865,6705.577603c-2.39,2.62 -6.76,5 -14.82,4.78c-12.35,-0.3 -14.69,-10.84 -15,-17.13a29.45,29.45 0 0 1 0.13,-4.62l16.18,-4.95l3.31,3.09l9.77,9.15a6.91,6.91 0 0 1 0.43,9.68z" opacity="0.1" id="svg_303"/>
    <path stroke="null" d="m8693.929865,6704.717603c-2.39,2.62 -6.76,5 -14.82,4.78c-12.35,-0.3 -14.69,-10.84 -15,-17.13a29.45,29.45 0 0 1 0.13,-4.62l16.18,-4.95l3.31,3.09l9.77,9.15a6.91,6.91 0 0 1 0.43,9.68z" fill="#dce0ed" id="svg_302"/>
    <path stroke="null" d="m8683.739865,6685.887603c-2.07,5.27 -8.19,6.7 -8.19,6.7l-11.43,-0.22a29.45,29.45 0 0 1 0.13,-4.62l16.18,-4.95l3.31,3.09z" opacity="0.1" id="svg_301"/>
    <path stroke="null" d="m8642.499865,6645.537603s-25.84,3.46 -18.95,26.82c5.22,17.7 16.87,18.89 22.21,18.44a88.45,88.45 0 0 1 9.35,-0.34l20.43,0.41s11.54,-2.69 8.31,-14.32s-18.09,-32.95 -41.35,-31.01z" fill="#f0f0f4" id="svg_300"/>
    <ellipse stroke="null" cx="8502.589865" cy="6700.667603" rx="11.92" ry="15.51" opacity="0.2" id="svg_299"/>
    <rect stroke="null" x="8545.159866" y="6665.337602" width="44.62" height="10.51" rx="5.25" ry="5.25" transform="rotate(6.090000152587891 8248.128906249982,6104.266601562506) " opacity="0.1" id="svg_298"/>
    <rect stroke="null" x="8545.069866" y="6664.4676" width="44.62" height="10.51" rx="5.25" ry="5.25" transform="rotate(6.090000152587891 8248.039062499993,6104.256835937504) " fill="#f0f0f4" id="svg_297"/>
    <path stroke="null" d="m8305.039865,6801.887603s-21.39,-21.11 4.59,-71.92c0,0 33.31,-50.4 85,4.74c0,0 29.72,33.16 38.33,86.14l-20.24,0.43s-19.39,-93.9 -76.24,-89.16c0,-0.01 -41.35,7.31 -31.44,69.77z" opacity="0.1" id="svg_296"/>
    <path stroke="null" d="m8304.199865,6804.467603s-21.4,-21.1 4.59,-71.93c0,0 33.31,-50.39 85,4.74c0,0 29.72,33.17 38.34,86.14l-20.25,0.43s-19.41,-93.88 -76.26,-89.15c0,0 -41.35,7.32 -31.42,69.77z" opacity="0.1" id="svg_295"/>
    <path stroke="null" d="m8304.199865,6802.747603s-21.4,-21.11 4.59,-71.93c0,0 33.31,-50.39 85,4.74c0,0 29.72,33.16 38.34,86.14l-20.25,0.43s-19.41,-93.89 -76.26,-89.16c0,0 -41.35,7.33 -31.42,69.78z" fill="#00bfa6" id="svg_294"/>
    <path stroke="null" d="m8304.199865,6802.747603s-21.4,-21.11 4.59,-71.93c0,0 33.31,-50.39 85,4.74c0,0 29.72,33.16 38.34,86.14l-20.25,0.43s-19.41,-93.89 -76.26,-89.16c0,0 -41.35,7.33 -31.42,69.78z" opacity="0.2" id="svg_293"/>
    <path stroke="null" d="m8759.589865,6870.087603l0,27.56l-304.66,-46.51c-14.93,-5.17 -23.84,-2 -23.84,-2c-11,-5.37 -19,-26.32 -19.23,-27l0,0l20.25,-0.43l58.58,8.18l212.91,30.58s37.76,4.31 39.91,6s16.08,3.62 16.08,3.62z" fill="none" id="svg_292"/>
    <path stroke="null" d="m8759.589865,6869.227603l0,27.56l-304.66,-46.52c-14.93,-5.16 -23.84,-2 -23.84,-2c-11,-5.37 -19,-26.32 -19.23,-27l0,0l20.25,-0.43l58.58,8.18l212.91,30.58s37.76,4.31 39.91,6s16.08,3.63 16.08,3.63z" opacity="0.1" id="svg_291"/>
    <path stroke="null" d="m8759.589865,6870.087603l0,27.56l-304.66,-46.51c-14.93,-5.17 -23.84,-2 -23.84,-2c-11,-5.37 -19,-26.32 -19.23,-27l0,0l20.25,-0.43l58.58,8.18l212.91,30.58s37.76,4.31 39.91,6s16.08,3.62 16.08,3.62z" fill="#00bfa6" id="svg_290"/>
    <path stroke="null" d="m8759.589865,6870.087603l0,27.56l-304.66,-46.51c-14.93,-5.17 -23.84,-2 -23.84,-2c-11,-5.37 -19,-26.32 -19.23,-27l0,0l20.25,-0.43l58.58,8.18l212.91,30.58s37.76,4.31 39.91,6s16.08,3.62 16.08,3.62z" opacity="0.2" id="svg_289"/>
    <path stroke="null" d="m9170.769865,6768.717603s-101.65,51.69 -227,46.52c0,0 -28.18,1.39 -30.14,-1.19s7.27,10.86 7.27,10.86s3.48,-3.64 6.93,-3.64s19.22,1.17 19.22,1.17s180.2,-7.63 226.29,-48.55l-2.57,-5.17z" fill="none" id="svg_288"/>
    <path stroke="null" d="m8490.259865,6829.967603c-18.93,-60.78 -17.92,-103.17 -13.74,-128c4.54,-27 13.72,-39.73 13.81,-39.85l0.69,0.51c-0.09,0.12 -9.16,12.76 -13.66,39.56c-4.16,24.78 -5.16,66.95 13.73,127.57l-0.83,0.21z" opacity="0.2" id="svg_287"/>
    <path stroke="null" d="m9173.639865,6803.337603c0.76,2.83 2.53,10.65 -0.28,12.76c-1.07,0.8 -2,2.77 -2.72,5.11a79.53,79.53 0 0 0 -2.44,12.12l-29.3,32.73l-49.53,19.39l-118.45,8.18l-71.5,-116.29l-160.65,-94.48l43.86,-2.43c43.87,-2.44 168.4,-30 168.4,-30l140.87,31.12a94.4,94.4 0 0 1 56.5,37.21c17.15,24 25,50 25,50c2.12,2.54 2.94,6.7 3.06,11.26c0.16,7.43 -1.54,15.89 -2.47,19.93c-0.35,1.51 -0.59,2.41 -0.59,2.41s0.08,0.34 0.24,0.98z" fill="#00bfa6" id="svg_286"/>
    <path stroke="null" d="m8743.499865,6864.767603s-8.61,-92.13 56,-117.13c0,0 90.88,-38.36 144.29,65.88l27.13,59.45s7.75,14.64 28.86,14.21c0,0 99.49,-3 152,-36.61l16.37,-19s-8.18,26.7 -16.37,32.73c0,0 -32.3,37.9 -149.89,44.8c0,0 -48.09,5.16 -62.59,-40.49c0,0 -19.67,-103.37 -119.6,-102.51c0,0 -58.71,1.15 -60.15,102.22l-16.05,-3.55z" opacity="0.1" id="svg_285"/>
    <path stroke="null" d="m8743.499865,6866.487603s-8.61,-92.12 56,-117.13c0,0 90.88,-38.35 144.29,65.88l27.13,59.44s7.75,14.64 28.86,14.21c0,0 99.49,-3 152,-36.61l16.42,-18.95s-8.18,26.7 -16.37,32.73c0,0 -32.3,37.91 -149.89,44.8c0,0 -48.09,5.17 -62.59,-40.49c0,0 -19.67,-103.37 -119.6,-102.51c0,0 -58.71,1.16 -60.15,102.23l-16.1,-3.6z" fill="#00bfa6" id="svg_284"/>
    <path stroke="null" d="m8743.499865,6866.487603s-8.61,-92.12 56,-117.13c0,0 90.88,-38.35 144.29,65.88l27.13,59.44s7.75,14.64 28.86,14.21c0,0 99.49,-3 152,-36.61l16.42,-18.95s-8.18,26.7 -16.37,32.73c0,0 -32.3,37.91 -149.89,44.8c0,0 -48.09,5.17 -62.59,-40.49c0,0 -19.67,-103.37 -119.6,-102.51c0,0 -58.71,1.16 -60.15,102.23l-16.1,-3.6z" opacity="0.2" id="svg_283"/>
    <path stroke="null" d="m8728.579865,6863.707603l-3.89,-128.17a131.89,131.89 0 0 0 -1,-26c-0.12,-0.54 -3.21,-13.76 -7.34,-21.27c-2.65,-3.87 -4.9,-5.05 -5,-5.07l-2.29,-0.62l2.56,-0.19c1.77,0.34 3.45,2.18 5,4.75c2.82,3.87 6.14,10.67 7.89,22.26a131.85,131.85 0 0 1 1,26.09l3.89,128.14l-0.82,0.08z" opacity="0.2" id="svg_282"/>
    <path stroke="null" d="m8807.669865,6768.647603l-0.84,0.14c0,-0.1 -1.79,-10.73 -7.69,-19.18c-12.37,-17.71 -16.41,-29.72 -16.87,-37.74a20.66,20.66 0 0 1 1,-8.22c1.93,-5.41 7.1,-9.41 14.12,-11.39l0,0l1.5,0.25c-6.75,1.9 -13,6.3 -14.85,11.43a20.18,20.18 0 0 0 -1,8.11c0.5,7.85 4.55,19.63 16.72,37.08c6.1,8.6 7.9,19.41 7.91,19.52z" opacity="0.2" id="svg_281"/>
    <path stroke="null" d="m9083.549865,6726.877603c-54.88,-32.75 -171.06,-63.21 -172.23,-63.51l0.22,-0.84c1.17,0.31 117.47,30.8 172.45,63.61l-0.44,0.74z" opacity="0.2" id="svg_280"/>
    <path stroke="null" d="m9163.339865,6772.267603c-20.72,-36.45 -76.51,-66.5 -119.67,-85.3a776,776 0 0 0 -89.66,-32.4l0.23,-0.83a776,776 0 0 1 89.77,32.44c43.28,18.85 99.24,49 120.08,85.66l-0.75,0.43z" opacity="0.2" id="svg_279"/>
    <ellipse stroke="null" cx="8974.229866" cy="7421.217603" rx="9.92" ry="42.14" transform="rotate(-37 8021.149902343752,6828.0576171875) " opacity="0.1" id="svg_278"/>
    <ellipse stroke="null" cx="8975.26986" cy="7419.147627" rx="9.92" ry="42.14" transform="rotate(-37 8022.18896484375,6827.707519531251) " fill="#dce0ed" id="svg_277"/>
    <ellipse stroke="null" cx="8976.589858" cy="7419.947588" rx="6.44" ry="34.8" transform="rotate(-37 8022.359863281251,6828.418457031248) " opacity="0.1" id="svg_276"/>
    <ellipse stroke="null" cx="8977.109862" cy="7418.917605" rx="6.44" ry="34.8" transform="rotate(-37 8022.879394531253,6828.247558593752) " fill="#f0f0f4" id="svg_275"/>
    <path stroke="null" d="m9035.739865,6792.627603s2.8,-21.11 19.39,-25.85c0,0 56.42,-16.32 68.7,-16.56c0,0 12.7,-3.89 21.1,5.58l8.61,11.63s6,9.48 -7.32,11.2c0,0 -68.19,25 -97.76,27.6a41.69,41.69 0 0 0 -5,0.76c-4.32,0.9 -13.39,1.16 -7.72,-14.36z" opacity="0.1" id="svg_274"/>
    <path stroke="null" d="m9036.609865,6791.767603s2.8,-21.11 19.38,-25.85c0,0 56.42,-16.32 68.7,-16.56c0,0 12.7,-3.9 21.1,5.58l8.62,11.63s6,9.47 -7.33,11.2c0,0 -68.18,25 -97.75,27.6a41.54,41.54 0 0 0 -5,0.76c-4.33,0.9 -13.4,1.16 -7.72,-14.36z" fill="#f0f0f4" id="svg_273"/>
    <path stroke="null" d="m9042.549865,6789.967603s2.61,-18.05 18,-22.1c0,0 52.46,-14 63.87,-14.17c0,0 11.81,-3.33 19.62,4.77l8,9.95s5.6,8.11 -6.81,9.58c0,0 -63.39,21.4 -90.88,23.61a42.25,42.25 0 0 0 -4.61,0.65c-4.03,0.71 -12.46,0.97 -7.19,-12.29z" opacity="0.1" id="svg_272"/>
    <path stroke="null" d="m9043.419865,6789.087603s2.6,-18 18,-22.1c0,0 52.46,-14 63.87,-14.17c0,0 11.81,-3.34 19.62,4.77l8,10s5.6,8.1 -6.81,9.58c0,0 -63.4,21.4 -90.89,23.61a41.89,41.89 0 0 0 -4.59,0.65c-4.05,0.72 -12.48,0.94 -7.2,-12.34z" fill="#636780" id="svg_271"/>
    <path stroke="null" d="m9047.849865,6777.967603l-0.11,-0.86c0.77,-0.09 77.39,-9.61 93.88,-22.34l0.53,0.68c-16.68,12.85 -91.14,22.11 -94.3,22.52z" fill="#f0f0f4" id="svg_270"/>
    <path stroke="null" d="m9043.819865,6787.887603l-0.15,-0.85c0.84,-0.15 85.13,-15.76 103.31,-27l0.46,0.73c-18.32,11.33 -102.77,26.96 -103.62,27.12z" fill="#f0f0f4" id="svg_269"/>
    <path stroke="null" d="m9041.829865,6796.057603l-0.16,-0.84c1,-0.19 98,-18.5 110,-29.23l0.57,0.64c-12.13,10.89 -106.41,28.68 -110.41,29.43z" fill="#f0f0f4" id="svg_268"/>
    <path stroke="null" d="m9142.779865,6796.497603s-36.56,15.25 -75,22.09q-5.1,0.92 -10.09,2.28c-3.9,1.06 -9.44,2.26 -12.45,1.48c-4.95,-1.3 -7.69,4.73 -2.34,9.47l0.34,0.3a19.13,19.13 0 0 0 14.23,4.7l8.23,-0.69s66.77,-14.64 85.39,-26.06c0,0 8.5,-5.83 9.15,-12.39s1.42,-11.73 -5.32,-7.85s-12.14,6.67 -12.14,6.67z" opacity="0.1" id="svg_267"/>
    <path stroke="null" d="m9143.599865,6795.657603c-1.36,0.56 -37.25,15.36 -75,22.07q-5.1,0.91 -10.09,2.28c-3.89,1.06 -9.44,2.26 -12.45,1.48c-5,-1.3 -7.69,4.73 -2.34,9.47l0.16,0.14a19.66,19.66 0 0 0 14.67,4.87l7.92,-0.66l0.13,0c2.29,-0.5 67,-14.81 85.3,-26l0.07,0c0.57,-0.41 8.49,-6.05 9.11,-12.37c0.65,-6.56 1.43,-11.73 -5.32,-7.85c-6.41,3.68 -11.6,6.4 -12.08,6.65l-0.08,-0.08z" fill="#f0f0f4" id="svg_266"/>
    <path stroke="null" d="m9138.719865,6800.477603s-30,12.48 -62.21,19.57c-3.2,0.7 -6.37,1.52 -9.52,2.43s-7.65,2 -10.15,1.68c-4.28,-0.57 -6.32,3.7 -1.52,6.57l0.15,0.09a18.53,18.53 0 0 0 12.09,2.44l7.42,-1s56.19,-14.14 71.49,-23.06c0,0 7,-4.49 7.18,-9s0.62,-8 -4.93,-5s-10,5.28 -10,5.28z" opacity="0.1" id="svg_265"/>
    <path stroke="null" d="m9139.569865,6799.617603c-0.64,0.27 -30.34,12.55 -62.19,19.57c-3.2,0.7 -6.38,1.52 -9.53,2.43s-7.64,2 -10.15,1.68c-4.28,-0.57 -6.32,3.69 -1.51,6.57l0,0a19,19 0 0 0 12.4,2.51l7.22,-1l0,0c1.16,-0.29 56.3,-14.22 71.46,-23l0,0c0.24,-0.16 7,-4.57 7.17,-9s0.62,-8.05 -4.93,-5s-9.75,5.16 -10,5.28l0.06,-0.04z" fill="#636780" id="svg_264"/>
    <ellipse stroke="null" cx="-4931.944947" cy="9208.833112" rx="11.31" ry="8.37" transform="matrix(0.05,-1,1,0.05,46.64,1443.79) " opacity="0.1" id="svg_263"/>
    <ellipse stroke="null" cx="9089.889865" cy="8323.757559" rx="11.31" ry="8.37" transform="rotate(-87.1500015258789 8267.5009765625,7622.63720703125) " fill="#f0f0f4" id="svg_262"/>
    <path stroke="null" d="m9058.059865,6844.737603s-43.85,6.68 -55.48,7.33s-13.38,7.1 -13.38,7.1s-2.8,16.37 13.35,11.63l57.28,-6.46s7.76,0.22 7.76,-10.34l0,-2.37a23.83,23.83 0 0 1 0.4,-3.95c0.31,-1.65 -0.54,-4.33 -9.93,-2.94z" opacity="0.1" id="svg_261"/>
    <path stroke="null" d="m9058.919865,6843.877603s-43.85,6.68 -55.48,7.32s-13.35,7.11 -13.35,7.11s-2.8,16.37 13.35,11.63l57.29,-6.46s7.75,0.22 7.75,-10.34l0,-2.37a23.83,23.83 0 0 1 0.4,-3.95c0.32,-1.65 -0.57,-4.33 -9.96,-2.94z" fill="#f0f0f4" id="svg_260"/>
    <path stroke="null" d="m9173.359865,6816.097603c-1.07,0.8 -2,2.77 -2.72,5.11l0,0l-14.2,10.06a1.16,1.16 0 0 1 -1.83,-0.94l0,-10.56a8.77,8.77 0 0 1 4.25,-7.52l14.78,-8.91c0.76,2.83 2.56,10.63 -0.28,12.76z" fill="#f0f0f4" id="svg_259"/>
    <path stroke="null" d="m9072.859865,6845.287603l-0.66,10.68a7.13,7.13 0 0 0 8.1,7.62a196.2,196.2 0 0 0 68.54,-24.62l1.87,-21.82a3.07,3.07 0 0 0 -4.27,-3.13c-12,5.35 -44.17,19.06 -64.59,21.68a10.37,10.37 0 0 0 -8.99,9.59z" fill="#636780" id="svg_258"/>
    <path stroke="null" d="m9079.459865,6839.787603l0,17.36s53.41,-12.62 65.25,-21.13l0,-16.47a268.29,268.29 0 0 1 -65.25,20.24z" fill="#00bfa6" id="svg_257"/>
    <path stroke="null" d="m9173.089865,6800.777603c-2.71,-0.19 -4.88,-4.84 -4.88,-10.53s2.26,-10.54 5,-10.54a3.18,3.18 0 0 1 2.29,1.13c0.22,7.43 -1.48,15.89 -2.41,19.94z" fill="#00bfa6" id="svg_256"/>
    <path stroke="null" d="m9173.949865,6799.907603c-2.71,-0.18 -4.87,-4.83 -4.87,-10.52s2.25,-10.55 5,-10.55a3.23,3.23 0 0 1 2.3,1.14c0.2,7.43 -1.5,15.89 -2.43,19.93z" fill="#f0f0f4" id="svg_255"/>
    <path stroke="null" d="m8928.279865,6873.487603c0,94.65 -40,96.7 -92.17,96.7c-41.68,0 -58.74,-43.29 -58.74,-96.7s13.39,-96.58 55.06,-96.58s95.85,43.18 95.85,96.58z" fill="#636780" id="svg_254"/>
    <path stroke="null" d="m8928.279865,6873.487603c0,94.65 -40,96.7 -92.17,96.7c-41.68,0 -58.74,-43.29 -58.74,-96.7s13.39,-96.58 55.06,-96.58s95.85,43.18 95.85,96.58z" opacity="0.2" id="svg_253"/>
    <ellipse stroke="null" cx="8829.949865" cy="6873.487603" rx="52.58" ry="96.7" fill="#636780" id="svg_252"/>
    <path stroke="null" d="m8379.409865,6816.097603c0,29 -8.4,52.26 -25.85,52.26s-38.19,-23.53 -38.19,-52.55s7.25,-54.55 24.7,-54.55s39.34,25.82 39.34,54.84z" fill="#f0f0f4" id="svg_251"/>
    <path stroke="null" d="m8379.399865,6814.967603q0,3.3 -0.18,6.48a82,82 0 0 1 -2.44,16.52c-2.83,10.68 -8,18.1 -15.54,19.51a14.71,14.71 0 0 1 -2.69,0.24a21.13,21.13 0 0 1 -11.16,-3.62c-7.19,-4.58 -13.82,-13.13 -17.19,-23.82a50.64,50.64 0 0 1 -2.31,-12.11c-0.08,-1.12 -0.12,-2.26 -0.12,-3.4a106.62,106.62 0 0 1 2.35,-23.51a43.28,43.28 0 0 1 5.08,-13.36c3.08,-4.85 7.17,-7.74 12.41,-7.74a20.54,20.54 0 0 1 10.93,3.69a42.59,42.59 0 0 1 12,12.41a53.11,53.11 0 0 1 8.86,28.71z" fill="#636780" id="svg_250"/>
    <path stroke="null" d="m8379.199865,6821.487603a82,82 0 0 1 -2.42,16.48c-0.36,-0.41 -10.24,-11.83 -17.66,-4.5c-5.45,5.37 -0.86,17.6 2.12,24a14.71,14.71 0 0 1 -2.69,0.24a21.13,21.13 0 0 1 -11.16,-3.62l0,-0.82s4.39,-13.68 -7.32,-22.11c0,0 -5.69,-2.26 -9.92,-0.9a50.64,50.64 0 0 1 -2.31,-12.11c1,-0.79 7.85,-6.66 5.05,-17.72a80.55,80.55 0 0 0 -2.82,-9.19a43.28,43.28 0 0 1 5.13,-13.34s2.25,12.21 10.86,12.94s12.37,-16.52 12.48,-17a42.59,42.59 0 0 1 12,12.41s-13.75,5.72 -9.74,20.94c2.94,10.78 12.9,13.59 18.4,14.3z" fill="#f0f0f4" id="svg_249"/>
    <ellipse stroke="null" cx="7435.037243" cy="7948.715674" rx="6.46" ry="11.2" transform="matrix(0.99,-0.14,0.14,0.99,-123.53,-15.76) " fill="#636780" id="svg_248"/>
    <path stroke="null" d="m8839.119865,6877.527603c0,34.77 -7.41,62.62 -22.8,62.62s-33.69,-28.19 -33.69,-63s6.4,-65.36 21.79,-65.36s34.7,30.97 34.7,65.74z" fill="#f0f0f4" id="svg_247"/>
    <path stroke="null" d="m8839.119865,6876.217603q0,4 -0.16,7.77a131.84,131.84 0 0 1 -2.16,19.76c-2.49,12.8 -7,21.68 -13.71,23.38a10.25,10.25 0 0 1 -2.37,0.28c-3.22,0 -6.6,-1.54 -9.84,-4.34c-6.38,-5.49 -12.2,-15.79 -15.21,-28.55a81.05,81.05 0 0 1 -2,-14.51c-0.07,-1.34 -0.11,-2.7 -0.11,-4.08a171.12,171.12 0 0 1 2.08,-28.16a63.51,63.51 0 0 1 4.56,-16c2.72,-5.81 6.33,-9.27 10.95,-9.27c3.11,0 6.42,1.59 9.64,4.42c3.85,3.39 7.56,8.54 10.62,14.87a80.61,80.61 0 0 1 7.71,34.43z" fill="#636780" id="svg_246"/>
    <path stroke="null" d="m8838.959865,6883.967603a131.84,131.84 0 0 1 -2.16,19.76c-0.31,-0.5 -9,-14.18 -15.58,-5.4c-4.8,6.44 -0.76,21.09 1.87,28.78a10.25,10.25 0 0 1 -2.37,0.28c-3.22,0 -6.6,-1.54 -9.84,-4.34l0,-1s3.87,-16.39 -6.46,-26.49c0,0 -5,-2.71 -8.75,-1.08a81.05,81.05 0 0 1 -2,-14.51c0.88,-0.95 6.92,-8 4.45,-21.23c-0.94,-5 -1.78,-8.57 -2.48,-11a63.51,63.51 0 0 1 4.56,-16s2,14.64 9.58,15.5s10.91,-19.78 11,-20.35c3.85,3.39 7.56,8.54 10.62,14.87c0,0 -12.13,6.86 -8.59,25.09c2.49,12.97 11.28,16.29 16.15,17.12z" fill="#f0f0f4" id="svg_245"/>
    <ellipse stroke="null" cx="8752.329868" cy="6928.197603" rx="5.72" ry="13.37" transform="rotate(-4.679999828338623 8127.911621093739,6188.388183593748) " fill="#636780" id="svg_244"/>
    <path stroke="null" d="m8738.769865,6682.857603" id="svg_243"/>
    <path stroke="null" d="m8955.829865,6726.117603l-0.35,0.79c-0.34,-0.16 -30.12,-13 -140.55,-31.74q-7.74,-1.31 -16,-2.67c-0.51,-0.07 -1,-0.16 -1.53,-0.24c-17.67,-2.88 -37.18,-5.87 -58.7,-9l0.12,-0.86c29.15,4.2 54.6,8.2 76.8,12c110.15,18.72 139.86,31.57 140.21,31.72z" opacity="0.2" id="svg_242"/>
    <path stroke="null" d="m8396.059865,6562.477603s10,-17 44.22,-18.51c0,0 250.1,-32.67 408,1.28c0,0 13.48,6 -1.15,9.52s-350.86,15.69 -451.07,7.71z" opacity="0.1" id="svg_241"/>
    <path stroke="null" d="m8396.059865,6560.757603s10,-17 44.22,-18.52c0,0 250.1,-32.66 408,1.29c0,0 13.48,6 -1.15,9.52s-350.86,15.69 -451.07,7.71z" fill="#fff" id="svg_240"/>
    <path stroke="null" d="m8372.649865,6632.167603c15.53,-36.56 34.17,-53.85 40.07,-58.68a6.68,6.68 0 0 1 4.1,-1.5l81.82,-1.52a6.63,6.63 0 0 1 5.63,2.9a6.69,6.69 0 0 0 -6.49,-4.62l-81.82,1.52a6.6,6.6 0 0 0 -4.1,1.5c-5.9,4.82 -24.54,22.11 -40.07,58.67a8.81,8.81 0 0 0 0.71,8.28a8.8,8.8 0 0 1 0.15,-6.55z" opacity="0.1" id="svg_239"/>
    <path stroke="null" d="m8519.929865,6636.247603l11.15,-50.67c2,-9.17 9.58,-15.67 18.32,-15.75l105.38,-1a17,17 0 0 1 11,3.94a17.19,17.19 0 0 0 -12.68,-5.55l-105.38,1c-8.75,0.09 -16.31,6.59 -18.32,15.76l-11.2,50.66a23,23 0 0 0 7.42,22.6a23.17,23.17 0 0 1 -5.69,-20.99z" opacity="0.1" id="svg_238"/>
    <path stroke="null" d="m8747.779865,6657.587603l-37.3,-77.32a7.26,7.26 0 0 1 6.4,-10.41c28.41,-0.52 103.08,-2.65 141.56,-11.1c-2.42,-1.89 -3.81,-2.94 -3.81,-2.94c-38,8.75 -114.33,10.93 -143.14,11.45a7.26,7.26 0 0 0 -6.4,10.41l37.31,77.29a26.62,26.62 0 0 0 15.26,13.6a26.57,26.57 0 0 1 -9.88,-10.98z" opacity="0.1" id="svg_237"/>
    <rect stroke="null" x="8743.509865" y="6866.487603" width="16.08" height="4.95" fill="#00bfa6" id="svg_236"/>
    <rect stroke="null" x="8743.509865" y="6866.487603" width="16.08" height="4.95" opacity="0.2" id="svg_235"/>
    <path stroke="null" d="m8431.359865,6817.497603l-19.77,3.41a10.25,10.25 0 0 0 0.57,2c0.39,1 22,-0.77 22,-0.77l-2.08,-0.43l-0.72,-4.21z" fill="#00bfa6" id="svg_234"/>
    <path stroke="null" d="m8431.359865,6817.497603l-19.77,3.41a10.25,10.25 0 0 0 0.57,2c0.39,1 22,-0.77 22,-0.77l-2.08,-0.43l-0.72,-4.21z" opacity="0.2" id="svg_233"/>
    <path stroke="null" d="m8356.769865,6865.967603c-17.44,0 -38.19,-23.53 -38.19,-52.55c0,-19.89 3.41,-38.15 11.17,-47.66c-10,8.07 -14.38,28.42 -14.38,50.87c0,29 20.75,52.55 38.19,52.55c5.9,0 10.75,-2.66 14.61,-7.3a17.61,17.61 0 0 1 -11.4,4.09z" opacity="0.1" id="svg_232"/>
    <path stroke="null" d="m8819.739865,6936.287603c-15.62,0 -34.2,-28.25 -34.2,-63.1c0,-23.89 3,-45.81 10,-57.23c-9,9.69 -12.87,34.13 -12.87,61.09c0,34.85 18.58,63.1 34.2,63.1c5.28,0 9.63,-3.2 13.08,-8.76c-2.9,3.16 -6.3,4.9 -10.21,4.9z" opacity="0.1" id="svg_231"/>
    <ellipse stroke="null" cx="8753.739863" cy="7504.217603" rx="25.74" ry="50.25" transform="rotate(-45 7969.988769531249,6873.80810546875) " opacity="0.1" id="svg_230"/>
    <ellipse stroke="null" cx="8755.459863" cy="7503.717588" rx="25.74" ry="50.25" transform="rotate(-45 7970.849121093748,6874.168457031249) " fill="#dce0ed" id="svg_229"/>
    <ellipse stroke="null" cx="8759.179863" cy="7504.497618" rx="18.87" ry="42.64" transform="rotate(-45 7972.099121093746,6875.697753906247) " opacity="0.1" id="svg_228"/>
    <ellipse stroke="null" cx="8759.789864" cy="7503.377608" rx="18.87" ry="42.64" transform="rotate(-45 7972.709472656247,6875.437988281249) " fill="#f0f0f4" id="svg_227"/>
    <ellipse stroke="null" cx="9336.349865" cy="6873.047603" rx="16.87" ry="2.85" fill="#00bfa6" opacity="0.1" id="svg_226"/>
    <ellipse stroke="null" cx="9192.259865" cy="6891.897603" rx="20.37" ry="3.44" fill="#00bfa6" opacity="0.1" id="svg_225"/>
    <ellipse stroke="null" cx="8829.099865" cy="6972.147603" rx="29.92" ry="5.06" fill="#00bfa6" opacity="0.1" id="svg_224"/>
    <g stroke="null" opacity="0.1" id="svg_221">
     <path stroke="null" d="m8830.069865,6687.497603c-0.41,0.75 -3.35,2.51 -6.93,4.45c-0.33,-2.61 -0.57,-4.58 -0.62,-5.19c-0.21,-2.23 4.55,-12.22 4.55,-12.22s9.11,-12.22 8.9,-14.06s3.52,-7.12 3.52,-7.12l8.26,-13.39a6,6 0 0 0 0.85,6.27c2.49,3.26 0.41,9.78 0.41,9.78l0.51,8.22l0,0.82c-0.29,0.29 -1.62,1.56 -4.56,4.21c-2.71,2.44 -2.23,3.19 -1.92,3.39c-0.62,1.1 0.14,1.29 0.14,1.29q0.36,0 0.72,-0.06l-0.66,0.61c-5.04,4.72 -12.43,11.67 -13.17,13z" fill="url(#svg_223)" id="svg_222"/>
    </g>
    <path stroke="null" d="m8767.429865,6823.857603s11.32,3 10.32,6.31l-10.32,-6.31z" opacity="0.05" id="svg_220"/>
    <circle stroke="null" cx="8776.409865" cy="6955.037603" r="0.78" fill="#4b4b5b" id="svg_219"/>
    <path stroke="null" d="m8761.399865,6826.237603c0,0.89 -0.08,1.42 -0.08,1.42l5.09,30.83c0.91,0.87 1.79,1.7 2.62,2.51a67,67 0 0 1 7.11,7.5c3,4.66 13.63,2.26 13.43,1.81s-4.56,-22.4 -4.56,-22.4l-3.45,-8.87s-3.6,2.25 -7.14,-1.5c-2.23,-2.37 -7.22,-7 -10.61,-10.1l-2.39,-2.18c0,0.36 -0.01,0.71 -0.02,0.98z" opacity="0.03" id="svg_218"/>
    <path stroke="null" d="m8727.589865,6776.967603s-19.69,2.41 -23.6,6.47c0,0 17.29,1.2 18,3.46c0,0 -9.88,-6.69 -12.63,-5l18.23,-4.93z" opacity="0.03" id="svg_217"/>
    <path stroke="null" d="m8768.489865,6861.017603l0.61,0.6c0.73,0.71 1.39,1.38 2,2c0.88,0.89 1.61,1.67 2.17,2.32l2.55,-3.3a10.54,10.54 0 0 0 -2.9,-1.76a5,5 0 0 0 -4.41,0.14l-0.02,0z" opacity="0.05" id="svg_216"/>
    <circle stroke="null" cx="8777.119865" cy="6865.137603" r="1.33" fill="#4b4b5b" id="svg_215"/>
    <circle stroke="null" cx="8779.149865" cy="6870.117603" r="1.33" fill="#4b4b5b" id="svg_214"/>
    <circle stroke="null" cx="8785.389865" cy="6878.137603" r="1.33" fill="#4b4b5b" id="svg_213"/>
    <circle stroke="null" cx="8782.299865" cy="6874.017603" r="1.33" fill="#4b4b5b" id="svg_212"/>
    <circle stroke="null" cx="8787.979865" cy="6882.887603" r="1.33" fill="#4b4b5b" id="svg_211"/>
    <path stroke="null" d="m8793.279865,6886.967603s1.11,13.05 0,19.15a5.41,5.41 0 0 0 7.43,0.69c0.16,-0.13 0.25,-0.22 0.25,-0.22c7.51,-6.16 3.83,-34.28 1.35,-38.19s-2.93,-24 -3.84,-30.36c-0.42,-3 -2,-3.92 -4.06,-4s-4.77,0.81 -7.12,1.07c0,6.37 0.36,21 2,25.86c2.19,6.28 3.99,26 3.99,26z" opacity="0.1" id="svg_210"/>
    <path stroke="null" d="m8796.589865,6860.417603c1.4,4.93 3.5,18.45 3.31,25.67c-0.15,5.3 0.46,15.63 0.8,20.74c0.16,-0.13 0.25,-0.22 0.25,-0.22c7.51,-6.16 3.83,-34.28 1.35,-38.19s-2.93,-24 -3.84,-30.36c-0.42,-3 -2,-3.92 -4.06,-4c0.28,6.5 1.08,22.46 2.19,26.36z" opacity="0.1" id="svg_209"/>
    <path stroke="null" d="m8791.469865,6834.407603c0.28,5.13 1.12,18.81 2.5,22.72c1.72,4.9 3.54,28.34 3.62,29.34l-0.6,0c0,-0.25 -1.9,-24.37 -3.59,-29.19c-1.41,-4 -2.25,-17.58 -2.52,-22.8l0.59,-0.07z" fill="#cc8294" id="svg_208"/>
    <path stroke="null" d="m8847.499865,6662.907603s11,-3.91 11.32,-2.71s-11.32,7.82 -11.32,7.82l0,-5.11z" opacity="0.1" id="svg_207"/>
    <path stroke="null" d="m8654.199865,6945.107603l-1,-0.23l1,0.23z" opacity="0.1" id="svg_206"/>
    <path stroke="null" d="m8654.839865,6945.237603l-0.54,-0.11l0.54,0.11z" opacity="0.1" id="svg_205"/>
    <path stroke="null" d="m8640.529865,6939.517603l0,0z" opacity="0.1" id="svg_204"/>
    <path stroke="null" d="m8640.549865,6939.527603l0,0z" opacity="0.1" id="svg_203"/>
    <path stroke="null" d="m8654.299865,6945.127603l-0.12,0l0.12,0z" opacity="0.1" id="svg_202"/>
    <path stroke="null" d="m8791.709865,6899.347603c0.11,1.17 0.16,2.32 0.2,3.32a5.4,5.4 0 0 0 1.36,3.47l0.06,0.06a48.24,48.24 0 0 0 0.44,-7.13c-0.21,0.31 -1.11,0.34 -2.06,0.28z" fill="#fff" opacity="0.3" id="svg_201"/>
   </g>
  </g>
  <rect id="svg_373" fill="#464353" height="72" width="112" y="611.951028" x="828.000305"/>
  <rect id="svg_374" fill="#464353" height="72" width="112" y="489.951028" x="832.000305"/>
  <rect id="svg_375" fill="#464353" height="72" width="112" y="733.951028" x="823.000305"/>
 </g>
</svg>