<svg width="1124" height="776" xmlns="http://www.w3.org/2000/svg">
 <title>light_the_fire</title>

 <g>
  <title>background</title>
  <rect fill="none" id="canvas_background" height="402" width="582" y="-1" x="-1"/>
 </g>
 <g>
  <title>Layer 1</title>
  <ellipse id="svg_1" fill="#3f3d56" ry="37" rx="562" cy="739" cx="562"/>
  <ellipse id="svg_2" fill="#00bfa6" ry="53" rx="58" cy="216" cx="534"/>
  <path id="svg_3" fill="#3f3d56" d="m636.5,701.5s-123.5,49.5 -211,1l0.81,-14l7.54,-130l7.13,-123l8.52,-147l164,0l7.88,147l6.6,123l6.97,130l1.55,13z"/>
  <path id="svg_4" stroke-miterlimit="10" stroke="#2f2e41" fill="none" d="m425.5,288.5"/>
  <path id="svg_5" fill="#00bfa6" d="m636.5,701.5s-113.5,50.5 -211,1l0.81,-14l208.64,0l1.55,13z"/>
  <polygon id="svg_6" fill="#00bfa6" points="627.98 558.5 433.85 558.5 440.98 435.5 621.38 435.5 627.98 558.5"/>
  <rect id="svg_7" fill="#3f3d56" height="20" width="184" y="272.5" x="439.5"/>
  <rect id="svg_8" fill="#3f3d56" height="20" width="184" y="205.5" x="439.5"/>
  <rect id="svg_9" fill="#3f3d56" height="52" width="11" y="225.5" x="455.5"/>
  <rect id="svg_10" fill="#3f3d56" height="52" width="11" y="225.5" x="484.5"/>
  <rect id="svg_11" fill="#3f3d56" height="52" width="11" y="225.5" x="513.5"/>
  <rect id="svg_12" fill="#3f3d56" height="52" width="11" y="225.5" x="542.5"/>
  <rect id="svg_13" fill="#3f3d56" height="52" width="11" y="225.5" x="571.5"/>
  <rect id="svg_14" fill="#3f3d56" height="68.5" width="11" y="146" x="484.5"/>
  <rect id="svg_15" fill="#3f3d56" height="68.5" width="11" y="146" x="513.5"/>
  <rect id="svg_16" fill="#3f3d56" height="68.5" width="11" y="146" x="542.5"/>
  <rect id="svg_17" fill="#3f3d56" height="68.5" width="11" y="146" x="571.5"/>
  <rect id="svg_18" fill="#3f3d56" height="52" width="11" y="225.5" x="600.5"/>
  <rect id="svg_19" fill="#3f3d56" height="61" width="11" y="154" x="456"/>
  <rect id="svg_20" fill="#3f3d56" height="61" width="11" y="154" x="601"/>
  <polygon id="svg_21" fill="#3f3d56" points="624 165.5 440 165.5 440 105.5 532 31 624 105.5 624 165.5"/>
  <circle id="svg_22" opacity="0.3" fill="#00bfa6" r="154.69512" cy="215" cx="534"/>
  <circle id="svg_23" opacity="0.3" fill="#00bfa6" r="215" cy="215" cx="534"/>
  <path id="svg_24" fill="#8985a8" d="m51.40863,692.73447c6.07317,22.45005 26.87512,36.35394 26.87512,36.35394s10.95541,-22.49485 4.88225,-44.94491s-26.87512,-36.35394 -26.87512,-36.35394s-10.95541,22.49485 -4.88225,44.94491z"/>
  <path id="svg_25" fill="#3f3d56" d="m60.33272,687.90971c16.66484,16.22255 18.70033,41.1604 18.70033,41.1604s-24.98356,-1.36411 -41.64841,-17.58667s-18.70033,-41.16044 -18.70033,-41.16044s24.98356,1.36415 41.64841,17.58671z"/>
  <path id="svg_26" fill="#8985a8" d="m316.75735,660.4082c-8.95314,33.09618 -39.61966,53.59348 -39.61966,53.59348s-16.15062,-33.16222 -7.19748,-66.2584s39.61966,-53.59348 39.61966,-53.59348s16.15062,33.1622 7.19748,66.2584z"/>
  <path id="svg_27" fill="#8985a8" d="m235.30876,660.4082c8.95314,33.09618 39.61966,53.59348 39.61966,53.59348s16.15062,-33.16222 7.19748,-66.2584s-39.61967,-53.59348 -39.61967,-53.59348s-16.15061,33.1622 -7.19747,66.2584z"/>
  <path id="svg_28" fill="#3f3d56" d="m248.46476,653.29547c24.56755,23.91552 27.56829,60.67923 27.56829,60.67923s-36.83111,-2.011 -61.39865,-25.92651s-27.56829,-60.67919 -27.56829,-60.67919s36.83111,2.011 61.39865,25.92647z"/>
  <path id="svg_29" fill="#3f3d56" d="m303.60134,653.29547c-24.56754,23.91553 -27.56829,60.67923 -27.56829,60.67923s36.83112,-2.011 61.39866,-25.92651s27.56829,-60.67919 27.56829,-60.67919s-36.83111,2.011 -61.39866,25.92647z"/>
  <text xml:space="preserve" text-anchor="start" font-family="Helvetica, Arial, sans-serif" font-size="101" id="svg_44" y="244" x="477.500001" fill-opacity="null" stroke-opacity="null" stroke-width="32" stroke="null" fill="#ffffff">@</text>
 </g>
</svg>