<svg width="906.5736" height="499" xmlns="http://www.w3.org/2000/svg">
 <title>build_your_ home</title>

 <g>
  <title>background</title>
  <rect fill="none" id="canvas_background" height="501" width="908.5736" y="-1" x="-1"/>
 </g>
 <g>
  <title>Layer 1</title>
  <circle id="svg_11" fill="#00bfa6" r="48.18335" cy="116.274" cx="583.90456"/>
  <path id="svg_12" fill="#f2f2f2" d="m238.5328,78.59681a8.46527,8.46527 0 0 1 -3.78865,6.95687l-0.31681,0.198l-142.73495,0l0.57424,-1.7491c0.099,-0.31024 10.54752,-30.63275 56.80354,-24.77815c4.36289,-1.49167 46.93585,-15.39223 72.42021,0.22444c11.30659,6.93049 17.04242,13.37254 17.04242,19.14794z"/>
  <path id="svg_13" fill="#00bfa6" d="m466.46325,325.28332c14.36643,0.30818 25.79475,10.71922 25.79475,10.71922s-11.86426,9.9114 -26.23069,9.60322s-25.79475,-10.71923 -25.79475,-10.71923s11.86424,-9.91139 26.23069,-9.60321z"/>
  <path id="svg_14" fill="#00bfa6" d="m394.23618,276.24324c12.97945,6.16629 27.86273,1.98484 27.86273,1.98484s-6.16057,-14.179 -19.14,-20.34529s-27.86272,-1.98484 -27.86272,-1.98484s6.16055,14.17899 19.13999,20.34529z"/>
  <path id="svg_15" fill="#3f3d56" d="m395.55558,270.11552c14.3101,-1.30779 26.83571,7.75342 26.83571,7.75342s-10.67564,11.18155 -24.98575,12.48933s-26.83571,-7.75342 -26.83571,-7.75342s10.67565,-11.18154 24.98575,-12.48933z"/>
  <path id="svg_16" fill="#3f3d56" d="m448.01193,272.59307c-1.37162,14.30413 7.63362,26.87 7.63362,26.87s11.22907,-10.62565 12.60068,-24.92978s-7.63361,-26.87 -7.63361,-26.87s-11.22907,10.62571 -12.60069,24.92978z"/>
  <path id="svg_17" fill="#3f3d56" d="m515.40542,360.31983c-7.50572,12.25371 -4.92339,27.496 -4.92339,27.496s14.75151,-4.62488 22.25723,-16.8786s4.92339,-27.496 4.92339,-27.496s-14.75151,4.62489 -22.25723,16.8786z"/>
  <path id="svg_18" fill="#3f3d56" d="m493.63037,493.54916l1.09384,-0.73933a34.26881,34.26881 0 0 1 -6.04806,-19.00436c0.03062,-9.93872 4.91232,-19.13134 9.63351,-28.02133c0.87631,-1.65012 1.74971,-3.29507 2.58991,-4.93874a107.80857,107.80857 0 0 0 8.38529,-21.05057c7.323,-27.21368 0.11312,-59.32065 -19.286,-85.88653c-15.38925,-21.07441 -38.33,-39.50284 -70.13245,-56.33853l-0.6175,1.16669c31.62129,16.73964 54.41511,35.04141 69.68383,55.95049c19.16582,26.24584 26.29741,57.93385 19.07719,84.765a106.52771,106.52771 0 0 1 -8.28538,20.79273c-0.83763,1.63755 -1.7078,3.27606 -2.58088,4.92037c-4.79629,9.0318 -9.756,18.37107 -9.78757,28.63658a35.60093,35.60093 0 0 0 6.27427,19.74753z"/>
  <circle id="svg_19" fill="#3f3d56" r="12.54087" cy="266.76347" cx="357.1788"/>
  <polygon id="svg_20" fill="#3f3d56" points="673.031982421875,508.36602783203125 -17.375999450683594,508.36602783203125 -5.7259979248046875,493.70697021484375 165.20599365234375,278.6570129394531 173.07400512695312,268.7560119628906 243.69900512695312,179.9010009765625 327.8280029296875,74.05599975585938 436.09600830078125,210.26998901367188 673.031982421875,508.36602783203125 "/>
  <path id="svg_21" fill="#f2f2f2" d="m441.35629,212.747a101.31472,101.31472 0 0 1 -13.888,6.86393a105.92381,105.92381 0 0 1 -76.297,0.75185c-29.14041,-11.06168 -53.35911,-35.04371 -84.212,-39.45722c-9.43966,-1.35051 -18.97679,-0.75881 -28.52088,-0.188l88.73,-111.633l114.18788,143.66244z"/>
  <path id="svg_22" fill="#f2f2f2" d="m474.17138,69.38711c2.35028,7.27111 0.79043,15.18023 -1.12525,22.57773s-4.19393,14.96467 -3.2153,22.54326c2.1147,16.37652 18.15071,26.87981 33.03531,34.029s31.63092,14.56838 38.1906,29.722c3.62837,8.382 3.457,17.83741 4.86872,26.86124a76.7081,76.7081 0 0 0 28.37441,48.15471c-12.63826,-0.29955 -23.95938,-7.98428 -32.906,-16.91591s-16.36834,-19.38192 -25.99506,-27.57592c-12.97458,-11.04363 -29.17979,-17.366 -44.41122,-25.00178s-30.40784,-17.4514 -38.29193,-32.55578c-8.05972,-15.44086 -7.168,-34.32168 -1.525,-50.8c4.19088,-12.238 11.89793,-31.22862 21.82117,-39.96493c7.81119,-6.87687 18.22462,-0.21539 21.17955,8.92638z"/>
  <rect id="svg_23" fill="#f2f2f2" height="96.3667" width="454.7716" y="411.96291" x="413.04909"/>
  <polygon id="svg_24" fill="#3f3d56" points="398.52801513671875,422.52398681640625 448.031982421875,318.89599609375 843.3989868164062,318.89599609375 880.3619995117188,422.52398681640625 398.52801513671875,422.52398681640625 "/>
  <rect id="svg_25" fill="#f2f2f2" height="60.72422" width="183.49275" y="325.4969" x="521.95665"/>
  <polygon id="svg_26" fill="#3f3d56" points="533.8369750976562,275.9930114746094 504.79498291015625,336.718017578125 722.6110229492188,336.718017578125 705.448974609375,275.9930114746094 533.8369750976562,275.9930114746094 "/>
  <rect id="svg_27" fill="#ccc" height="77.22537" width="144.88007" y="431.10424" x="538.12778"/>
  <rect id="svg_28" fill="#ccc" height="74.58518" width="77.22537" y="433.74442" x="430.87032"/>
  <rect id="svg_29" fill="#3f3d56" height="69.96486" width="39.93277" y="438.36474" x="708.08959"/>
  <rect id="svg_30" fill="#00bfa6" height="18.15126" width="19.47135" y="442.32502" x="791.25536"/>
  <rect id="svg_31" fill="#00bfa6" height="18.15126" width="19.47135" y="442.32502" x="817.32718"/>
  <rect id="svg_32" fill="#00bfa6" height="18.81131" width="19.47135" y="467.07674" x="791.25536"/>
  <rect id="svg_33" fill="#00bfa6" height="18.81131" width="19.47135" y="467.07674" x="817.32718"/>
  <rect id="svg_34" fill="#3f3d56" height="14.20533" width="15.23845" y="342.11284" x="538.78782"/>
  <rect id="svg_35" fill="#3f3d56" height="14.20533" width="15.23845" y="342.11284" x="559.19185"/>
  <rect id="svg_36" fill="#3f3d56" height="14.72189" width="15.23845" y="361.48375" x="538.78782"/>
  <rect id="svg_37" fill="#3f3d56" height="14.72189" width="15.23845" y="361.48375" x="559.19185"/>
  <rect id="svg_38" fill="#3f3d56" height="14.20533" width="15.23845" y="342.11284" x="652.97576"/>
  <rect id="svg_39" fill="#3f3d56" height="14.20533" width="15.23845" y="342.11284" x="673.37978"/>
  <rect id="svg_40" fill="#3f3d56" height="14.72189" width="15.23845" y="361.48375" x="652.97576"/>
  <rect id="svg_41" fill="#3f3d56" height="14.72189" width="15.23845" y="361.48375" x="673.37978"/>
  <rect id="svg_42" fill="#3f3d56" height="14.20533" width="15.23845" y="342.11284" x="596.21181"/>
  <rect id="svg_43" fill="#3f3d56" height="14.20533" width="15.23845" y="342.11284" x="616.61584"/>
  <rect id="svg_44" fill="#3f3d56" height="14.72189" width="15.23845" y="361.48375" x="596.21181"/>
  <rect id="svg_45" fill="#3f3d56" height="14.72189" width="15.23845" y="361.48375" x="616.61584"/>
  <rect id="svg_46" fill="#f2f2f2" height="8.9441" width="9.59458" y="445.45306" x="717.00021"/>
  <rect id="svg_47" fill="#f2f2f2" height="8.9441" width="9.59458" y="445.45306" x="729.84718"/>
  <rect id="svg_48" fill="#f2f2f2" height="9.26934" width="9.59458" y="457.64956" x="717.00021"/>
  <rect id="svg_49" fill="#f2f2f2" height="9.26934" width="9.59458" y="457.64956" x="729.84718"/>
  <circle id="svg_50" fill="#f2f2f2" r="2.64018" cy="478.29752" cx="742.74199"/>
  <polygon id="svg_51" fill="#f2f2f2" points="583.5750122070312,260.1629943847656 561.7930297851562,260.1629943847656 561.7930297851562,265.3970031738281 566.1500244140625,265.3970031738281 566.1500244140625,280.6239929199219 579.218994140625,280.6239929199219 579.218994140625,265.3970031738281 583.5750122070312,265.3970031738281 583.5750122070312,260.1629943847656 "/>
  <path id="svg_52" fill="#00bfa6" d="m538.9618,485.88059c-3.75241,13.87115 -16.60525,22.4619 -16.60525,22.4619s-6.769,-13.89882 -3.01658,-27.77s16.60525,-22.4619 16.60525,-22.4619s6.76894,13.89886 3.01658,27.77z"/>
  <path id="svg_53" fill="#00bfa6" d="m504.82533,485.88059c3.75241,13.87115 16.60524,22.4619 16.60524,22.4619s6.769,-13.89882 3.01658,-27.77s-16.60524,-22.4619 -16.60524,-22.4619s-6.76899,13.89886 -3.01658,27.77z"/>
  <path id="svg_54" fill="#3f3d56" d="m510.33923,482.89953c10.29665,10.02338 11.55431,25.43165 11.55431,25.43165s-15.43651,-0.84284 -25.73317,-10.86622s-11.55432,-25.43165 -11.55432,-25.43165s15.43652,0.84284 25.73318,10.86622z"/>
  <path id="svg_55" fill="#3f3d56" d="m533.44786,482.89953c-10.29665,10.02338 -11.55432,25.43165 -11.55432,25.43165s15.43652,-0.84284 25.73318,-10.86622s11.55431,-25.43165 11.55431,-25.43165s-15.43651,0.84284 -25.73317,10.86622z"/>
  <rect x="-64" id="svg_56" fill="#3f3d56" height="1.32009" width="1157.5736" y="507.67991"/>
  <path id="svg_57" fill="#f2f2f2" d="m684.23153,132.22073a8.46527,8.46527 0 0 1 -3.78866,6.95687l-0.31681,0.198l-142.73492,0l0.57424,-1.7491c0.099,-0.31024 10.54752,-30.63275 56.80355,-24.77815c4.36289,-1.49167 46.93585,-15.39223 72.42021,0.22443c11.30659,6.9305 17.04239,13.37255 17.04239,19.14795z"/>
  <path id="svg_58" fill="#f2f2f2" d="m244.85731,299.96634a8.46529,8.46529 0 0 1 -3.78866,6.95687l-0.31681,0.198l-142.73492,0l0.57424,-1.74909c0.099,-0.31025 10.54752,-30.63276 56.80354,-24.77815c4.3629,-1.49167 46.93586,-15.39224 72.42022,0.22443c11.30659,6.93048 17.04239,13.37254 17.04239,19.14794z"/>
 </g>
</svg>