<svg width="846.57778" height="682.58345" xmlns="http://www.w3.org/2000/svg">

 <g>
  <title>background</title>
  <rect fill="none" id="canvas_background" height="602" width="802" y="-1" x="-1"/>
 </g>
 <g>
  <title>Layer 1</title>
  <path id="svg_8" fill="#3f3d56" d="m642.92389,160.99459l-2.27,0l0,-113.96a38.99,38.99 0 0 0 -38.99,-38.98975l-253.79,0a38.99,38.99 0 0 0 -38.99,38.98975l0,49.93017l-0.86,0a2.29009,2.29009 0 0 0 -2.29,2.29l0,22.33008a2.29008,2.29008 0 0 0 2.29,2.29l0.86,0l0,22.3501l-1.06,0a2.28977,2.28977 0 0 0 -2.29,2.29l0,42.25976a2.29008,2.29008 0 0 0 2.29,2.29l1.06,0l0,16.39014l-0.96,0a2.28968,2.28968 0 0 0 -2.29,2.28955l0,42.66034a2.2901,2.2901 0 0 0 2.29,2.29l0.96,0l0,386.62994a38.99013,38.99013 0 0 0 38.99,38.99023l253.79,0a38.99013,38.99013 0 0 0 38.99,-38.99023l0,-400.59961l2.27,0a2.29008,2.29008 0 0 0 2.29,-2.29l0,-77.15043a2.29008,2.29008 0 0 0 -2.29,-2.29004z"/>
  <path id="svg_9" fill="#fff" d="m485.22378,38.08443l-38.58989,0a4.37457,4.37457 0 0 1 -4.37011,-4.36914l0,-1.6709a4.37457,4.37457 0 0 1 4.37011,-4.36914l38.58985,0a4.37458,4.37458 0 0 1 4.37012,4.36914l0,1.6709a4.37458,4.37458 0 0 1 -4.37008,4.36914z"/>
  <circle id="svg_10" fill="#fff" r="5.34001" cy="32.88485" cx="501.43392"/>
  <path id="svg_11" fill="#fff" d="m593.81389,25.60485l-38,0l0,4.57a21.7,21.7 0 0 1 -21.7,21.7l-121.06,0a21.69,21.69 0 0 1 -21.7,-21.68l0,-4.59l-35.63,0a26.35,26.35 0 0 0 -26.35,26.35l0,0l0,586.44a26.35,26.35 0 0 0 26.35,26.35l238.09,0a26.34,26.34 0 0 0 26.34,-26.34l0,-586.45a26.34,26.34 0 0 0 -26.33,-26.35l-0.01,0z"/>
  <path id="svg_12" fill="#00bfa6" d="m525.76442,593.58346l-102.00053,0a27.5,27.5 0 0 1 0,-55l102.00053,0a27.5,27.5 0 0 1 0,55z"/>
  <path id="svg_13" fill="#e6e6e6" d="m565.76442,367.69479l-182.00053,0a9.5,9.5 0 0 1 0,-19l182.00053,0a9.5,9.5 0 0 1 0,19z"/>
  <path id="svg_14" fill="#e6e6e6" d="m565.76442,395.69479l-182.00053,0a9.5,9.5 0 0 1 0,-19l182.00053,0a9.5,9.5 0 0 1 0,19z"/>
  <path id="svg_15" fill="#e6e6e6" d="m565.76442,423.69479l-182.00053,0a9.5,9.5 0 0 1 0,-19l182.00053,0a9.5,9.5 0 0 1 0,19z"/>
  <path id="svg_16" fill="#e6e6e6" d="m565.76442,451.69479l-182.00053,0a9.5,9.5 0 0 1 0,-19l182.00053,0a9.5,9.5 0 0 1 0,19z"/>
  <path id="svg_17" fill="#e6e6e6" d="m441.76442,479.69479l-58.00053,0a9.5,9.5 0 0 1 0,-19l58.00049,0a9.5,9.5 0 0 1 0,19l0.00004,0z"/>
  <path id="svg_18" fill="#e6e6e6" d="m594.24983,289.84349l-238.97168,0a7.97707,7.97707 0 0 1 -7.96826,-7.96776l0,-177.36183a7.97707,7.97707 0 0 1 7.96826,-7.96778l238.97168,0a7.97666,7.97666 0 0 1 7.96777,7.96778l0,177.36183a7.97666,7.97666 0 0 1 -7.96777,7.96776z"/>
  <g id="svg_19" opacity="0.1">
   <path id="svg_20" d="m636.57778,239.21485q-0.00009,-2.06 0,-4.14a31.24781,31.24781 0 0 0 0,3.21c-0.00995,0.31001 0,0.62 0,0.93z"/>
  </g>
  <path id="svg_26" fill="#2f2e41" transform="rotate(-180 2392.299560546875,2239.853271484375) " d="m2371.71815,2231.90133l41.16277,0a0,0 0 0 1 0,0l0,15.9038a0,0 0 0 1 0,0l-25.85365,0a15.30912,15.30912 0 0 1 -15.30912,-15.30912l0,-0.59467a0,0 0 0 1 0,-0.00001z"/>
 </g>
</svg>