<svg width="887" height="542.47985" xmlns="http://www.w3.org/2000/svg">
 <title>online_calendar</title>

 <g>
  <title>background</title>
  <rect fill="none" id="canvas_background" height="402" width="582" y="-1" x="-1"/>
 </g>
 <g>
  <title>Layer 1</title>
  <rect id="svg_15" fill="#e6e6e6" height="343.11355" width="551" y="114.3663" x="161"/>
  <rect id="svg_16" fill="#fff" height="65.59524" width="100.91575" y="180.46612" x="197.94893"/>
  <rect id="svg_17" fill="#fff" height="65.59524" width="100.91575" y="180.46612" x="323.34439"/>
  <rect id="svg_18" fill="#fff" height="65.59524" width="100.91575" y="180.46612" x="448.73986"/>
  <rect id="svg_19" fill="#fff" height="65.59524" width="100.91575" y="180.46612" x="574.13532"/>
  <rect id="svg_20" fill="#fff" height="65.59524" width="100.91575" y="273.30861" x="197.94893"/>
  <rect id="svg_21" fill="#fff" height="65.59524" width="100.91575" y="273.30861" x="323.34439"/>
  <rect id="svg_22" fill="#fff" height="65.59524" width="100.91575" y="273.30861" x="448.73986"/>
  <rect id="svg_23" fill="#fff" height="65.59524" width="100.91575" y="273.30861" x="574.13532"/>
  <rect id="svg_24" fill="#fff" height="65.59524" width="100.91575" y="366.1511" x="197.94893"/>
  <rect id="svg_25" fill="#fff" height="65.59524" width="100.91575" y="366.1511" x="323.34439"/>
  <rect id="svg_26" fill="#fff" height="65.59524" width="100.91575" y="366.1511" x="448.73986"/>
  <rect id="svg_27" fill="#fff" height="65.59524" width="100.91575" y="366.1511" x="574.13532"/>
  <circle id="svg_28" fill="#fff" r="15.13736" cy="139.59524" cx="305.30952"/>
  <circle id="svg_29" fill="#fff" r="15.13736" cy="139.59524" cx="555.58059"/>
  <rect y="74" id="svg_30" fill="#e6e6e6" height="69.63187" width="12.10989" x="299.25458"/>
  <rect y="74" id="svg_31" fill="#e6e6e6" height="69.63187" width="12.10989" x="549.52564"/>
  <path id="svg_32" fill="#00bfa6" d="m647.41392,213.263739a22.75657,22.75657 0 1 1 -3.52684,-12.19042a22.81841,22.81841 0 0 1 3.52684,12.19042z"/>
  <path id="svg_33" fill="#fff" d="m643.88708,201.073319l-22.46389,22.45974c-1.41187,-2.1858 -9.27766,-12.34393 -9.27766,-12.34393a31.82988,31.82988 0 0 1 3.2198,-2.84223l6.52257,8.69677l19.36856,-19.36856a22.72614,22.72614 0 0 1 2.63062,3.39821z"/>
  <path id="svg_34" fill="#00bfa6" d="m396.623,306.106229a22.75657,22.75657 0 1 1 -3.52684,-12.19042a22.81841,22.81841 0 0 1 3.52684,12.19042z"/>
  <path id="svg_35" fill="#fff" d="m393.09615,293.915809l-22.46389,22.45974c-1.41187,-2.1858 -9.27766,-12.34393 -9.27766,-12.34393a31.82988,31.82988 0 0 1 3.2198,-2.84223l6.52257,8.69678l19.36856,-19.36857a22.72665,22.72665 0 0 1 2.63062,3.39821z"/>
  <path id="svg_36" fill="#00bfa6" d="m271.22752,306.106229a22.75667,22.75667 0 1 1 -3.52684,-12.19042a22.81841,22.81841 0 0 1 3.52684,12.19042z"/>
  <path id="svg_37" fill="#fff" d="m267.70068,293.915809l-22.46389,22.45974c-1.41187,-2.1858 -9.27765,-12.34393 -9.27765,-12.34393a31.82988,31.82988 0 0 1 3.2198,-2.84223l6.52256,8.69678l19.36857,-19.36857a22.72658,22.72658 0 0 1 2.63061,3.39821z"/>
 </g>
</svg>