<svg width="1100" height="806.74" xmlns="http://www.w3.org/2000/svg">

 <title>operating system</title>
 <g>
  <title>background</title>
  <rect fill="none" id="canvas_background" height="402" width="582" y="-1" x="-1"/>
 </g>
 <g>
  <title>Layer 1</title>
  <ellipse id="svg_1" opacity="0.1" fill="#00bfa6" ry="26.18" rx="122.56" cy="780.56" cx="629.72"/>
  <path id="svg_2" opacity="0.1" fill="#00bfa6" d="m1070.55,683.839999c-24.35,20.2 -59,28.56 -92.51,33.84l-5.64,0.86c-58.57,8.74 -118.32,10.52 -177.79,12.28c-165.87,4.91 -332.17,9.81 -497.6,-1.51c-73.16,-5 -148.13,-13.76 -212.25,-43.7l-1.67,-0.79c-0.83,-0.39 -1.66,-0.78 -2.49,-1.19a224.11,224.11 0 0 1 -32.6,-19.09c-18.31,-13.06 -33.43,-29 -41.42,-47.91c-12.52,-29.66 -5.9,-63 8.4,-92s35.8,-55.12 54.34,-82.43c5.44,-8 10.6,-16.3 15.4,-24.81c30,-53.37 44.88,-115.13 13.43,-166.56a228.58,228.58 0 0 0 -13.43,-19c-7.67,-10 -15.47,-20 -20.74,-31.07c-12.29,-25.76 -9.65,-54.73 -5.17,-82.25c6,-36.59 17.05,-76 51.38,-98.86c35.67,-23.74 86.3,-22.54 130.57,-14c68.83,13.19 132.36,40.8 196.49,65.7s131.35,47.58 201.86,50.02c62.26,2.17 134.89,-14 176.23,-56.08c40.15,-40.85 115.6,-43.94 170,-19.27c51.91,23.54 85.48,73.36 83,123.12c-3.16,62.1 -54.93,111.83 -95.9,164.7c-6.81,8.79 -13.33,17.68 -19.28,26.72c-19.42,29.53 -33.15,65 -19.78,96.88c7.5,17.85 21.81,31.47 39.06,43.36c38.65,26.63 92,44.55 116,81.83c20.67,32.16 13.01,75.56 -17.89,101.21z"/>
  <ellipse id="svg_3" fill="#00bfa6" ry="10.96" rx="57.01" cy="704.85" cx="972.5"/>
  <ellipse id="svg_4" fill="#3f3d56" ry="8.69" rx="6.64" cy="700.19" cx="971.55"/>
  <ellipse id="svg_5" fill="#3f3d56" ry="8.69" rx="6.64" cy="689.57" cx="971.55"/>
  <ellipse id="svg_6" fill="#3f3d56" ry="8.69" rx="6.64" cy="678.94" cx="971.55"/>
  <ellipse id="svg_7" fill="#3f3d56" ry="8.69" rx="6.64" cy="668.32" cx="971.55"/>
  <ellipse id="svg_8" fill="#3f3d56" ry="8.69" rx="6.64" cy="657.7" cx="971.55"/>
  <ellipse id="svg_9" fill="#3f3d56" ry="8.69" rx="6.64" cy="647.08" cx="971.55"/>
  <ellipse id="svg_10" fill="#3f3d56" ry="8.69" rx="6.64" cy="636.46" cx="971.55"/>
  <path id="svg_11" fill="#00bfa6" d="m996.4,563.779999a31,31 0 0 0 2.47,-3.64l-17.44,-2.86l18.86,0.14a31.78,31.78 0 0 0 0.61,-25.2l-25.31,13.15l23.34,-17.15a31.8,31.8 0 1 0 -52.51,35.58a31.55,31.55 0 0 0 -3.63,5.8l22.64,11.77l-24.14,-8.1a31.79,31.79 0 0 0 5.13,29.86a31.8,31.8 0 1 0 50,0a31.78,31.78 0 0 0 0,-39.32l-0.02,-0.03z"/>
  <path id="svg_12" opacity="0.1" d="m939.61,583.439999a31.68,31.68 0 0 0 6.81,19.66a31.8,31.8 0 1 0 50,0c4.24,-5.41 -56.81,-23.23 -56.81,-19.66z"/>
  <path id="svg_13" fill="#00bfa6" d="m134.73,673.909999c0,5.59 -21.81,10.21 -50,10.87l-1.67,0c-0.83,-0.39 -1.66,-0.78 -2.49,-1.19a224.11,224.11 0 0 1 -32.57,-19.05c6.85,-0.8 14.64,-1.34 23,-1.52l1.13,0c1.82,0 3.67,-0.06 5.54,-0.06c1.22,0 2.43,0 3.62,0l1.18,0c0.76,0 1.51,0 2.25,0c28.2,0.73 50.01,5.41 50.01,10.95z"/>
  <ellipse id="svg_14" fill="#3f3d56" ry="8.69" rx="6.64" cy="669.25" cx="76.76"/>
  <ellipse id="svg_15" fill="#3f3d56" ry="8.69" rx="6.64" cy="658.63" cx="76.76"/>
  <ellipse id="svg_16" fill="#3f3d56" ry="8.69" rx="6.64" cy="648.01" cx="76.76"/>
  <ellipse id="svg_17" fill="#3f3d56" ry="8.69" rx="6.64" cy="637.39" cx="76.76"/>
  <ellipse id="svg_18" fill="#3f3d56" ry="8.69" rx="6.64" cy="626.77" cx="76.76"/>
  <ellipse id="svg_19" fill="#3f3d56" ry="8.69" rx="6.64" cy="616.15" cx="76.76"/>
  <ellipse id="svg_20" fill="#3f3d56" ry="8.69" rx="6.64" cy="605.52" cx="76.76"/>
  <path id="svg_21" fill="#00bfa6" d="m101.61,532.839999a32.28,32.28 0 0 0 2.48,-3.63l-17.45,-2.84l18.87,0.14a31.8,31.8 0 0 0 0.6,-25.19l-25.3,13.13l23.34,-17.16a31.8,31.8 0 1 0 -52.52,35.58a32.45,32.45 0 0 0 -3.63,5.8l22.64,11.7l-24.14,-8.07a31.87,31.87 0 0 0 5.13,29.86a31.8,31.8 0 1 0 50,0a31.78,31.78 0 0 0 0,-39.32l-0.02,0z"/>
  <path id="svg_22" opacity="0.1" d="m44.83,552.499999a31.67,31.67 0 0 0 6.8,19.66a31.8,31.8 0 1 0 50,0c4.24,-5.41 -56.8,-23.23 -56.8,-19.66z"/>
  <g id="svg_23" opacity="0.2">
   <path id="svg_24" fill="#3f3d56" d="m305.84,555.289999c0,0.94 -0.1,1.86 -0.2,2.76q-11.64,-4.68 -22.92,-9.93a18.59,18.59 0 0 1 -10.6,-5.17c-2.19,-1.1 -4.37,-2.24 -6.54,-3.39a26.82,26.82 0 0 1 1.66,-3c4.2,-6.66 10.6,-10.83 17.65,-10.6s13.15,4.78 16.93,11.66a34.37,34.37 0 0 1 4.02,17.67z"/>
   <path id="svg_25" fill="#3f3d56" d="m307,520.369999a34.56,34.56 0 0 1 -5.13,17.32c-4.21,6.64 -10.6,10.81 -17.65,10.58c-0.49,0 -1,-0.06 -1.45,-0.1a18.59,18.59 0 0 1 -10.6,-5.17a25.27,25.27 0 0 1 -4.88,-6.37a35.82,35.82 0 0 1 1.1,-35c4.21,-6.66 10.6,-10.83 17.65,-10.6s13.15,4.78 16.93,11.66a34.47,34.47 0 0 1 4.03,17.68z"/>
   <ellipse id="svg_26" fill="#3f3d56" transform="rotate(-88.19000244140625 -255.4299926757813,803.9199829101562) " ry="21.87" rx="28.63" cy="1335.199983" cx="80.750007"/>
   <ellipse id="svg_27" fill="#3f3d56" transform="rotate(-88.19000244140625 -219.41000366210946,771.1599731445311) " ry="21.87" rx="28.63" cy="1267.469973" cx="117.879996"/>
   <ellipse id="svg_28" fill="#3f3d56" transform="rotate(-88.19000244140625 -183.38999938964835,738.3900146484376) " ry="21.87" rx="28.63" cy="1199.730015" cx="155.000001"/>
   <path id="svg_29" fill="#00bfa6" d="m214.12,172.829999a105.78,105.78 0 0 1 -7.76,-12.24l57.72,-7.62l-62.08,-1.5a104.92,104.92 0 0 1 0.62,-83l82,45.85l-75.15,-58.95a104.75,104.75 0 1 1 169.22,122.65a105.13,105.13 0 0 1 11.31,19.46l-75.77,36.38l80.33,-24.17a104.85,104.85 0 0 1 -20,97.78a104.75,104.75 0 1 1 -164.56,-5.19a104.73,104.73 0 0 1 4.08,-129.45l0.04,0z"/>
   <path id="svg_30" opacity="0.1" d="m399.05,243.449999a104.29,104.29 0 0 1 -24.44,64a104.75,104.75 0 1 1 -164.61,-5.17c-13.43,-18.25 189.42,-70.58 189.05,-58.83z"/>
  </g>
  <g id="svg_31" opacity="0.2">
   <path id="svg_32" fill="#3f3d56" d="m798.18,480.509999c0,0.67 -0.07,1.32 -0.14,2q-8.31,-3.29 -16.31,-7.06a13.31,13.31 0 0 1 -7.55,-3.68c-1.55,-0.79 -3.11,-1.6 -4.65,-2.41a19.78,19.78 0 0 1 1.18,-2.13c3,-4.74 7.54,-7.7 12.56,-7.54s9.36,3.4 12.05,8.3a24.5,24.5 0 0 1 2.86,12.52z"/>
   <path id="svg_33" fill="#3f3d56" d="m799,455.619999a24.56,24.56 0 0 1 -3.65,12.33c-3,4.72 -7.54,7.69 -12.56,7.53l-1,-0.07a13.31,13.31 0 0 1 -7.55,-3.68a18.32,18.32 0 0 1 -3.47,-4.54a25.51,25.51 0 0 1 0.78,-24.88c3,-4.74 7.55,-7.71 12.56,-7.55s9.37,3.4 12.05,8.3a24.55,24.55 0 0 1 2.84,12.56z"/>
   <ellipse id="svg_34" fill="#3f3d56" transform="rotate(-88.19000244140625 281.2699890136719,1248.97998046875) " ry="15.56" rx="20.37" cy="1725.84998" cx="1115.459989"/>
   <ellipse id="svg_35" fill="#3f3d56" transform="rotate(-88.19000244140625 306.8999938964844,1225.6700439453125) " ry="15.56" rx="20.37" cy="1677.650044" cx="1141.879994"/>
   <ellipse id="svg_36" fill="#3f3d56" transform="rotate(-88.19000244140625 332.52999877929716,1202.3499755859377) " ry="15.56" rx="20.37" cy="1629.449976" cx="1168.289999"/>
   <path id="svg_37" fill="#00bfa6" d="m732.91,208.369999a73.57,73.57 0 0 1 -5.52,-8.71l41.08,-5.42l-44.21,-1.07a74.67,74.67 0 0 1 0.43,-59.07l58.31,32.59l-53.4,-41.93a74.55,74.55 0 1 1 120.4,87.26a74.71,74.71 0 0 1 8.06,13.86l-53.89,25.89l57.17,-17.2a74.55,74.55 0 0 1 -14.22,69.58a74.54,74.54 0 1 1 -117.12,-3.69a74.55,74.55 0 0 1 2.91,-92.09z"/>
   <path id="svg_38" opacity="0.1" d="m864.52,258.589999a74.2,74.2 0 0 1 -17.4,45.56a74.54,74.54 0 1 1 -117.12,-3.69c-9.58,-13 134.78,-50.23 134.52,-41.87z"/>
  </g>
  <g id="svg_39" opacity="0.2">
   <path id="svg_40" fill="#3f3d56" d="m585,402.459999c0,0.67 -0.08,1.32 -0.15,2q-8.31,-3.29 -16.31,-7.06a13.28,13.28 0 0 1 -7.54,-3.68c-1.56,-0.79 -3.11,-1.6 -4.65,-2.41a19,19 0 0 1 1.17,-2.13c3,-4.73 7.55,-7.7 12.56,-7.54s9.36,3.4 12.05,8.3a24.5,24.5 0 0 1 2.87,12.52z"/>
   <path id="svg_41" fill="#3f3d56" d="m585.74,377.569999a24.56,24.56 0 0 1 -3.65,12.33c-3,4.72 -7.54,7.69 -12.56,7.53c-0.35,0 -0.68,0 -1,-0.07a13.28,13.28 0 0 1 -7.54,-3.68a18.11,18.11 0 0 1 -3.48,-4.54a25.48,25.48 0 0 1 0.79,-24.88c3,-4.74 7.54,-7.71 12.56,-7.55s9.36,3.4 12,8.3a24.54,24.54 0 0 1 2.88,12.56z"/>
   <ellipse id="svg_42" fill="#3f3d56" transform="matrix(0.03,-1,1,0.03,152.77,960.28) " ry="15.56" rx="20.37" cy="398.82" cx="620.97"/>
   <ellipse id="svg_43" fill="#3f3d56" transform="rotate(-88.19000244140625 178.39999389648438,936.9600219726562) " ry="15.56" rx="20.37" cy="1310.890022" cx="800.149994"/>
   <ellipse id="svg_44" fill="#3f3d56" transform="rotate(-88.19000244140625 204.03999328613267,913.6400146484374) " ry="15.56" rx="20.37" cy="1262.690015" cx="826.579993"/>
   <path id="svg_45" fill="#00bfa6" d="m519.68,130.279999a74.87,74.87 0 0 1 -5.52,-8.71l41.08,-5.42l-44.24,-1.07a74.62,74.62 0 0 1 0.44,-59.07l58.33,32.63l-53.39,-41.93a74.54,74.54 0 1 1 120.42,87.26a74.76,74.76 0 0 1 8.07,13.86l-53.87,25.89l57.16,-17.2a74.55,74.55 0 0 1 -14.22,69.58a74.54,74.54 0 1 1 -117.16,-3.73a74.57,74.57 0 0 1 2.9,-92.13l0,0.04z"/>
   <path id="svg_46" opacity="0.1" d="m651.29,180.539999a74.2,74.2 0 0 1 -17.4,45.56a74.54,74.54 0 1 1 -117.11,-3.73c-9.59,-12.95 134.77,-50.19 134.51,-41.83z"/>
  </g>
  <path id="svg_47" fill="#3f3d56" d="m972.4,500.809999l0,217.73c-58.57,8.74 -118.32,10.52 -177.79,12.28c-165.87,4.91 -332.17,9.81 -497.6,-1.51c-73.16,-5 -148.13,-13.76 -212.25,-43.7l0,-268.24c0.24,-185 -0.76,0 0,-185.56l0,-66.59a14.1,14.1 0 0 1 14.1,-14.1l859.44,0a14.1,14.1 0 0 1 14.1,14.1l0,168.63c0.6,166.52 -0.4,0.52 0,166.96z"/>
  <rect id="svg_48" opacity="0.3" fill="#00bfa6" rx="5.22" height="28.56" width="368.86" y="217.75" x="344.15"/>
  <path id="svg_49" fill="#444053" d="m687.94,233.219999l-0.61,0l-0.23,-0.19a5.1,5.1 0 0 0 1.19,-3.25a4.94,4.94 0 1 0 -4.92,5a5.09,5.09 0 0 0 3.24,-1.18l0.22,0.19l0,0.58l3.81,3.82l1.14,-1.14l-3.84,-3.83zm-0.73,3.83a3.44,3.44 0 1 1 3.43,-3.44a3.42,3.42 0 0 1 -7.27,-0.39l3.84,3.83z"/>
  <rect id="svg_50" opacity="0.7" fill="#3f3d56" rx="5" height="11.9" width="34.42" y="493.2" x="222.84"/>
  <rect id="svg_51" opacity="0.3" fill="#00bfa6" rx="5" height="11.9" width="53.54" y="522.95" x="222.84"/>
  <rect id="svg_52" opacity="0.3" fill="#00bfa6" rx="5" height="11.9" width="107.09" y="508.08" x="222.84"/>
  <path id="svg_53" fill="#00bfa6" d="m164.57,522.579999a5.74,5.74 0 0 0 -5.8,5.69a3.88,3.88 0 0 1 -3.87,3.79a10,10 0 0 0 7.73,3.8a7.67,7.67 0 0 0 7.75,-7.59a5.75,5.75 0 0 0 -5.81,-5.69zm26.53,-17.76l-2.6,-2.55a1.94,1.94 0 0 0 -2.72,0l-17.34,17l5.32,5.22l17.32,-17a1.86,1.86 0 0 0 0.02,-2.67z"/>
  <rect id="svg_54" opacity="0.7" fill="#3f3d56" rx="5" height="11.9" width="34.42" y="345.66" x="222.84"/>
  <rect id="svg_55" opacity="0.3" fill="#00bfa6" rx="5" height="11.9" width="53.54" y="375.41" x="222.84"/>
  <rect id="svg_56" opacity="0.3" fill="#00bfa6" rx="5" height="11.9" width="107.09" y="360.53" x="222.84"/>
  <path id="svg_57" fill="#00bfa6" d="m191.18,378.149999l-15.18,-15.28a10.82,10.82 0 0 0 -2.51,-11.58a11,11 0 0 0 -12.35,-2.18l7.18,7.22l-5,5l-7.32,-7.18a10.86,10.86 0 0 0 2.17,12.41a10.66,10.66 0 0 0 11.51,2.52l15.15,15.29a1.61,1.61 0 0 0 2.34,0l3.84,-3.86a1.51,1.51 0 0 0 0.17,-2.35l0,-0.01z"/>
  <rect id="svg_58" opacity="0.7" fill="#3f3d56" rx="5" height="11.9" width="34.42" y="493.2" x="509.6"/>
  <rect id="svg_59" opacity="0.3" fill="#00bfa6" rx="5" height="11.9" width="53.54" y="522.95" x="509.6"/>
  <rect id="svg_60" opacity="0.3" fill="#00bfa6" rx="5" height="11.9" width="107.09" y="508.08" x="509.6"/>
  <path id="svg_61" fill="#00bfa6" d="m459.44,525.999999a10,10 0 0 1 -9.89,0c-3.87,1.19 -6.24,5.09 -7.12,8.54l24.12,0c-0.87,-3.45 -3.23,-7.35 -7.11,-8.54zm-4.94,-18.37a8.69,8.69 0 1 0 8.69,8.68a8.69,8.69 0 0 0 -8.69,-8.68zm0,15.3a6.71,6.71 0 0 1 -6.07,-4.14l12.14,0a6.71,6.71 0 0 1 -6.07,4.14z"/>
  <path id="svg_62" fill="#00bfa6" d="m472.09,521.369999a10.07,10.07 0 0 1 -8.4,0.69a12,12 0 0 1 -2.3,2.86a11.24,11.24 0 0 1 4.9,4.33l12.91,0a10.72,10.72 0 0 0 -7.11,-7.88zm-4.94,-18.38a8.71,8.71 0 0 0 -7.33,4a10.78,10.78 0 0 1 5.15,7.14l8.25,0a6.72,6.72 0 0 1 -6.07,4.12a6,6 0 0 1 -2.08,-0.38a11.65,11.65 0 0 1 -0.54,2.07a8.35,8.35 0 0 0 2.62,0.4a8.69,8.69 0 0 0 0,-17.38l0,0.03z"/>
  <rect id="svg_63" opacity="0.7" fill="#3f3d56" rx="5" height="11.9" width="34.42" y="603.86" x="222.84"/>
  <rect id="svg_64" opacity="0.3" fill="#00bfa6" rx="5" height="11.9" width="53.54" y="633.61" x="222.84"/>
  <rect id="svg_65" opacity="0.3" fill="#00bfa6" rx="5" height="11.9" width="107.09" y="618.74" x="222.84"/>
  <path id="svg_66" fill="#00bfa6" d="m176.57,607.619999l-9.82,0a3.28,3.28 0 0 0 -3.32,3.24l0,0.7l-0.62,0a3.28,3.28 0 0 0 -3.32,3.24l0,23.63a3.34,3.34 0 0 0 3.32,3.32l17.08,0a3.27,3.27 0 0 0 3.23,-3.32l0,-0.62l0.71,0a3.27,3.27 0 0 0 3.23,-3.32l0,-16.37l-10.49,-10.5zm10.49,14.16l6.84,6.84l-6.84,0l0,-6.84zm3.94,27.15a0.67,0.67 0 0 1 -0.62,0.7l-27.57,0a0.73,0.73 0 0 1 -0.69,-0.7l0,-34.13a0.67,0.67 0 0 1 0.69,-0.62l0.62,0l0,21c0,1.82 0.86,2.66 2.67,2.66l14.41,0l10.49,11.09zm3.93,-3.94a0.66,0.66 0 0 1 -0.61,0.7l-27.57,0a0.73,0.73 0 0 1 -0.69,-0.7l0,-34.13a0.67,0.67 0 0 1 0.69,-0.62l7.19,0l0,10.51l10.5,0l10.49,24.24z"/>
  <rect id="svg_67" opacity="0.7" fill="#3f3d56" rx="5" height="11.9" width="34.42" y="345.66" x="509.6"/>
  <rect id="svg_68" opacity="0.3" fill="#00bfa6" rx="5" height="11.9" width="53.54" y="375.41" x="509.6"/>
  <rect id="svg_69" opacity="0.3" fill="#00bfa6" rx="5" height="11.9" width="107.09" y="360.53" x="509.6"/>
  <path id="svg_70" fill="#00bfa6" d="m457.32,353.369999l-11.38,0a3.51,3.51 0 0 0 -3.5,3.51l0,19.25a3.5,3.5 0 0 0 3.5,3.5l29.76,0a3.5,3.5 0 0 0 3.5,-3.5l0,-15.34a3.51,3.51 0 0 0 -3.5,-3.5l-14.88,0l-3.5,-3.94l0,0.02z"/>
  <rect id="svg_71" opacity="0.7" fill="#3f3d56" rx="5" height="11.9" width="34.42" y="493.2" x="792.79"/>
  <rect id="svg_72" opacity="0.3" fill="#00bfa6" rx="5" height="11.9" width="53.54" y="522.95" x="792.79"/>
  <rect id="svg_73" opacity="0.3" fill="#00bfa6" rx="5" height="11.9" width="107.09" y="508.08" x="792.79"/>
  <path id="svg_74" fill="#00bfa6" d="m762.93,509.279999l-6.77,-0.32l-0.4,-4.41a1.7,1.7 0 0 0 -1.88,-1.52l-24.27,2a1.67,1.67 0 0 0 -1.59,1.79l1.73,19.35a1.7,1.7 0 0 0 1.88,1.49l1.23,-0.09l-0.19,3.76a1.87,1.87 0 0 0 1.83,1.93l27.09,1.28a1.88,1.88 0 0 0 2,-1.74l1.14,-21.6a1.86,1.86 0 0 0 -1.8,-1.92zm-29.12,0.44l-0.58,11.06l-1.44,2l-1.32,-14.61l0,-0.09a0.89,0.89 0 0 1 0.78,-0.77l21.42,-1.75a0.81,0.81 0 0 1 0.87,0.64s0,0 0,0s0,0 0,0l0.21,2.52l-18,-0.86a1.9,1.9 0 0 0 -1.94,1.86zm27.4,19.44l-7,-8.17l-3.07,2.82l-5.67,-6.63l-10.07,10.72l0.86,-16.33l0,0a0.94,0.94 0 0 1 1,-0.74l23.9,1.16a0.87,0.87 0 0 1 0.85,0.83s0,0 0,0l-0.8,16.34z"/>
  <path id="svg_75" fill="#00bfa6" d="m756.89,518.789999a2.63,2.63 0 1 0 -2.62,-2.63a2.64,2.64 0 0 0 2.62,2.63z"/>
  <rect id="svg_76" opacity="0.7" fill="#3f3d56" rx="5" height="11.9" width="34.42" y="345.66" x="795.17"/>
  <rect id="svg_77" opacity="0.3" fill="#00bfa6" rx="5" height="11.9" width="53.54" y="375.41" x="795.17"/>
  <rect id="svg_78" opacity="0.3" fill="#00bfa6" rx="5" height="11.9" width="107.09" y="360.53" x="795.17"/>
  <circle id="svg_79" fill="#00bfa6" r="5.25" cy="356.63" cx="762.56"/>
  <path id="svg_80" fill="#00bfa6" d="m758.53,362.819999l-10.42,6.94l-14.44,-9.62l0,-3.51l14.44,9.63l8.3,-5.53a7.39,7.39 0 0 1 -0.1,-8l-23.07,0a3.52,3.52 0 0 0 -3.51,3.51l0,21.88a3.52,3.52 0 0 0 3.51,3.51l29.76,0a3.51,3.51 0 0 0 3.5,-3.51l0,-15.2a7.37,7.37 0 0 1 -8,-0.06l0.03,-0.04z"/>
  <ellipse id="svg_81" fill="#00bfa6" ry="5.01" rx="26.08" cy="746.02" cx="509.64"/>
  <ellipse id="svg_82" fill="#3f3d56" ry="3.97" rx="3.04" cy="743.89" cx="509.21"/>
  <ellipse id="svg_83" fill="#3f3d56" ry="3.97" rx="3.04" cy="739.03" cx="509.21"/>
  <ellipse id="svg_84" fill="#3f3d56" ry="3.97" rx="3.04" cy="734.17" cx="509.21"/>
  <ellipse id="svg_85" fill="#3f3d56" ry="3.97" rx="3.04" cy="729.31" cx="509.21"/>
  <ellipse id="svg_86" fill="#3f3d56" ry="3.97" rx="3.04" cy="724.46" cx="509.21"/>
  <ellipse id="svg_87" fill="#3f3d56" ry="3.97" rx="3.04" cy="719.6" cx="509.21"/>
  <ellipse id="svg_88" fill="#3f3d56" ry="3.97" rx="3.04" cy="714.74" cx="509.21"/>
  <path id="svg_89" fill="#00bfa6" d="m520.57,681.499999a13.59,13.59 0 0 0 1.13,-1.67l-8,-1.31l8.62,0.07a14.59,14.59 0 0 0 0.28,-11.52l-11.57,6l10.67,-7.85a14.54,14.54 0 1 0 -24,16.28a15.11,15.11 0 0 0 -1.66,2.65l10.36,5.38l-11,-3.7a14.53,14.53 0 0 0 2.34,13.65a14.54,14.54 0 1 0 22.86,0a14.55,14.55 0 0 0 0,-18l-0.03,0.02z"/>
  <path id="svg_90" opacity="0.1" d="m494.6,690.489999a14.45,14.45 0 0 0 3.11,9a14.54,14.54 0 1 0 22.86,0c1.95,-2.48 -25.97,-10.63 -25.97,-9z"/>
  <path id="svg_97" fill="#e8eaf2" d="m666.49,772.059999c-2.71,1.85 -6.07,2.43 -9.33,2.85s-6.61,0.73 -9.57,2.18c-2.54,1.26 -4.69,3.32 -7.39,4.22a15.31,15.31 0 0 1 -7.67,0.12a12.6,12.6 0 0 1 -7.89,-5.33c-1.46,-2.32 -1.31,-5.27 -1.11,-8c0.24,-3.09 0.47,-6.2 0.69,-9.3a4.4,4.4 0 0 1 0.58,-2.24c2.19,-3.2 7.52,1.33 10.37,1.33c4.52,0 9.37,-2.46 12.62,-5.45a3.89,3.89 0 0 1 1,-0.74c1.29,-0.58 2.58,0.49 3.72,1.42a26.4,26.4 0 0 1 -3.17,6.56a13.63,13.63 0 0 1 -10,6.22c-2,0.15 -4.09,-0.25 -6,0.27s-3.77,2.52 -3.08,4.42s3.06,2.25 5,2.36a22.38,22.38 0 0 0 8.21,-0.58c1.6,-0.53 3.07,-1.41 4.62,-2.06c6.62,-2.74 15,-1.21 20.46,-5.85a13,13 0 0 1 1.67,-1.28c1.45,2.99 -1.22,7.19 -3.73,8.88z"/>
  <path id="svg_108" opacity="0.1" d="m744.87,402.709999a11.5,11.5 0 0 1 -5.72,2.33c-2.72,0.18 -8.51,-1.42 -10.2,-3.75a6.77,6.77 0 0 1 -1,-3.91a4.91,4.91 0 0 1 1.14,-0.22a29.88,29.88 0 0 1 8.86,0.36c2.88,0.7 5.66,2.45 6.87,5.16l0.05,0.03z"/>
  <path id="svg_115" fill="#e8eaf2" d="m657.47,795.769999c-1.92,1.79 -4.55,2.57 -7.1,3.12a127.7,127.7 0 0 1 -17.67,2.19l-5.77,0.44c-5.63,0.43 -11.27,0.86 -16.92,0.88a116.24,116.24 0 0 1 -20.82,-1.8a2.27,2.27 0 0 1 -1.65,-0.79a9.26,9.26 0 0 1 -1.29,-2.36c0.12,-7 2,-14.05 3.6,-20.9c0.65,-2.81 5.7,3.5 5.93,3.77a5.76,5.76 0 0 0 4.59,2.43c5.81,0.32 12.32,-3.21 16.93,-6.35a22.18,22.18 0 0 1 3.14,-1.95a9.19,9.19 0 0 1 2.54,-0.72c-0.75,4.18 -6.74,9.23 -9.84,10.77c-6.26,3.11 -13.7,1.55 -20.68,1.92a3,3 0 0 0 -1.47,0.35c-0.83,0.56 -0.88,1.75 -0.86,2.75c0.06,1.66 0.27,3.62 1.72,4.46a4.94,4.94 0 0 0 2.32,0.49a327.89,327.89 0 0 0 51.57,-1.81a28.23,28.23 0 0 0 8.4,-1.87a21.44,21.44 0 0 0 4.87,-3.14c2.2,1.72 0.36,6.34 -1.54,8.12z"/>
  <path id="svg_117" opacity="0.1" d="m729,433.669999c-1.09,-2.75 -5.67,-10.36 -4.35,-13a33.77,33.77 0 0 1 3.49,6.24c0.86,2.15 0.18,5.01 0.86,6.76z"/>
  <path id="svg_121" opacity="0.1" d="m617.94,343.649999a1.8,1.8 0 0 1 -0.42,2.32a3.2,3.2 0 0 1 -1.66,0.59a11.2,11.2 0 0 1 -1.3,0.1a3.58,3.58 0 0 1 -1.71,-0.29a2.2,2.2 0 0 1 -0.3,-0.19a4.4,4.4 0 0 0 0.51,-0.69c0.1,0.08 0.2,0.06 0.59,0a9.13,9.13 0 0 0 2.14,-0.36a2.38,2.38 0 0 0 0.8,-0.39a2.48,2.48 0 0 0 0.76,-1.15l0.59,0.06z"/>
  <path id="svg_122" opacity="0.1" d="m602.86,379.009999a4.87,4.87 0 0 0 1.83,0.68a8.29,8.29 0 0 0 1.41,0.23a7.84,7.84 0 0 0 3.45,-1"/>
 </g>
</svg>