<svg width="892.6139" height="540.80203" xmlns="http://www.w3.org/2000/svg">
 <title>season_change</title>

 <g>
  <title>background</title>
  <rect fill="none" id="canvas_background" height="602" width="802" y="-1" x="-1"/>
 </g>
 <g>
  <title>Layer 1</title>
  <circle id="svg_1" fill="#ff6584" r="46" cy="71.32961" cx="73.89615"/>
  <ellipse id="svg_2" fill="#e6e6e6" ry="18" rx="444.00318" cy="522.80203" cx="444.00318"/>
  <circle id="svg_3" fill="#00bfa6" r="113" cy="184.2194" cx="113"/>
  <polygon id="svg_4" fill="#3f3d56" points="123.892 524.581 100.747 524.581 111.298 167.201 123.892 524.581"/>
  <polygon id="svg_5" fill="#3f3d56" points="113.34 234.933 138.187 200.557 113 243.442 110.277 238.677 113.34 234.933"/>
  <polygon id="svg_6" fill="#3f3d56" points="110.617 269.65 85.771 235.274 110.958 278.159 113.681 273.394 110.617 269.65"/>
  <circle id="svg_10" fill="#3f3d56" r="210.50358" cy="314.39327" cx="459.05561"/>
  <circle id="svg_11" fill="#fff" r="193.07779" cy="314.39327" cx="459.05561"/>
  <circle id="svg_12" fill="#3f3d56" r="25.79017" cy="315.0903" cx="458.35857"/>
  <rect id="svg_13" fill="#3f3d56" height="20.91095" width="11.15251" y="131.07392" x="452.78232"/>
  <rect id="svg_14" fill="#3f3d56" height="20.91095" width="11.15251" y="478.19572" x="452.78232"/>
  <rect id="svg_15" fill="#3f3d56" transform="rotate(90 779.4869384765626,-123.40042114257808) " height="20.91095" width="11.15251" y="360.833389" x="1212.401408"/>
  <rect id="svg_16" fill="#3f3d56" transform="rotate(90 1126.6087646484377,-470.52221679687494) " height="20.91095" width="11.15251" y="13.711593" x="1906.645035"/>
  <polygon id="svg_17" fill="#3f3d56" points="450.924 326.286 460.455 304.493 579.88 370.635 450.924 326.286"/>
  <rect id="svg_18" fill="#3f3d56" height="62.73286" width="54.36848" y="53.00636" x="431.87137"/>
  <ellipse id="svg_19" fill="#3f3d56" ry="17.42579" rx="62.73286" cy="53.00636" cx="459.05561"/>
  <g stroke="null" id="svg_75">
   <g stroke="null" transform="matrix(0.6148719769918837,0,0,0.6844652536588721,-6609.368576771063,-3359.7743725031223) " id="svg_73">
    <title stroke="null" transform="translate(55.29606246948242,243.986083984375) translate(8.131773948669434,532.81103515625) translate(774.1448974609375,494.1086730957031) translate(585.4940185546875,698.8241577148438) translate(-3.705658435821533,0) translate(3.705658435821533,0) translate(3.705658435821533,0) translate(3.705658435821533,0) translate(3.705658435821533,0) translate(3.705658435821533,0) translate(3.705658435821533,0) translate(3.705658435821533,0) translate(3.705658435821533,0) translate(3.705658435821533,0) translate(3.705658435821533,0) translate(3.705658435821533,0) translate(3.705658435821533,0) translate(3.705658435821533,0) translate(3.705658435821533,0) translate(3.705658435821533,0) translate(3.705658435821533,0) translate(3.705658435821533,0) translate(4651.77685546875,176.09249877929688) translate(5719.88134765625,0) translate(0,2848.604736328125) ">background</title>
    <rect stroke="null" x="11853.015491" y="4993.427185" width="382.74612" height="692.55273" id="svg_71" fill="none"/>
   </g>
   <g stroke="null" transform="matrix(0.6148719769918837,0,0,0.6844652536588721,-6609.368576771063,-3359.7743725031223) " id="svg_74">
    <title stroke="null" transform="translate(55.29606246948242,243.986083984375) translate(8.131773948669434,532.81103515625) translate(774.1448974609375,494.1086730957031) translate(585.4940185546875,698.8241577148438) translate(-3.705658435821533,0) translate(3.705658435821533,0) translate(3.705658435821533,0) translate(3.705658435821533,0) translate(3.705658435821533,0) translate(3.705658435821533,0) translate(3.705658435821533,0) translate(3.705658435821533,0) translate(3.705658435821533,0) translate(3.705658435821533,0) translate(3.705658435821533,0) translate(3.705658435821533,0) translate(3.705658435821533,0) translate(3.705658435821533,0) translate(3.705658435821533,0) translate(3.705658435821533,0) translate(3.705658435821533,0) translate(3.705658435821533,0) translate(4651.77685546875,176.09249877929688) translate(5719.88134765625,0) translate(0,2848.604736328125) ">Layer 1</title>
    <circle stroke="null" cx="12095.182611" cy="5356.421765" r="97.200432" fill="#e6e6e6" id="svg_70"/>
    <path stroke="null" d="m12068.921043,5498.360222l23.90995,14.81627l0,-100.15167l-26.80021,-16.60727a10.396,10.396 0 0 1 -4.53632,-6.03867l0,0a10.39619,10.39619 0 0 1 7.42666,1.37447l23.90995,14.81627l0,-38.8359a91.88994,91.88994 0 0 1 2.74357,-22.28622a91.887,91.887 0 0 1 2.74356,22.28622l0,63.38739l35.27393,-21.85809a17.28621,17.28621 0 0 1 9.38854,-2.59016a17.287,17.287 0 0 1 -6.49828,7.25439l-38.16433,23.64908l0,236.85085l-5.4871,0l0,-154.79542l-26.80021,-16.60721a10.396,10.396 0 0 1 -4.53631,-6.03865l0,0a10.39632,10.39632 0 0 1 7.4266,1.37432z" fill="#ccc" id="svg_69"/>
    <circle stroke="null" cx="11951.215921" cy="5364.674625" r="97.200432" fill="#e6e6e6" id="svg_68"/>
    <path stroke="null" d="m11977.477553,5506.613082l-23.91,14.81627l0,-100.15167l26.8002,-16.60725a10.396,10.396 0 0 0 4.53633,-6.03868l0,0a10.3963,10.3963 0 0 0 -7.42666,1.37447l-23.91,14.81625l0,-38.83592a91.889,91.889 0 0 0 -2.74357,-22.28622a91.88751,91.88751 0 0 0 -2.74355,22.28622l0,63.3874l-35.27375,-21.85807a17.28624,17.28624 0 0 0 -9.38856,-2.59015a17.287,17.287 0 0 0 6.4983,7.25439l38.16417,23.64913l0,229.12081l5.48709,0l0,-147.06543l26.80019,-16.60726a10.39591,10.39591 0 0 0 4.53633,-6.03864l0,0a10.39645,10.39645 0 0 0 -7.42652,1.37435z" fill="#ccc" id="svg_67"/>
    <circle stroke="null" cx="12021.823761" cy="5161.781725" r="167.354538" fill="#e6e6e6" id="svg_66"/>
    <path stroke="null" d="m12067.039553,5406.163892l-41.16685,25.50985l0,-172.43587l46.14314,-28.59343a17.89922,17.89922 0 0 0 7.81049,-10.39707l0.00008,-0.00008l-0.00008,0a17.89974,17.89974 0 0 0 -12.78675,2.36648l-41.16685,25.50983l0,-66.86552a158.21125,158.21125 0 0 0 -4.72373,-38.37124a158.20777,158.20777 0 0 0 -4.7237,38.37124l0,109.137l-60.73275,-37.63414a29.76333,29.76333 0 0 0 -16.16471,-4.45962a29.76342,29.76342 0 0 0 11.18843,12.4902l65.709,40.71779l0,373.80807l9.44743,0l0,-232.52939l46.14316,-28.59344a17.89918,17.89918 0 0 0 7.8105,-10.39707l0.00008,-0.00006l-0.00008,0a17.89976,17.89976 0 0 0 -12.78681,2.36647z" fill="#ccc" id="svg_65"/>
    <path stroke="null" d="m13470.189013,7217.298414l43.61336,0a0,0 0 0 1 0,0l0,16.85062a0,0 0 0 1 0,0l-28.30424,0a15.30912,15.30912 0 0 1 -15.30912,-15.30912l0,-1.54149a0,0 0 0 1 0,-0.00001z" transform="rotate(-180 13492.001953125,7225.7236328125) " fill="#2f2e41" id="svg_64"/>
   </g>
  </g>
 </g>
</svg>