<svg width="234.54" height="352.93" xmlns="http://www.w3.org/2000/svg">

 <title>empty</title>
 <g>
  <title>background</title>
  <rect fill="none" id="canvas_background" height="354.93" width="236.54" y="-1" x="-1"/>
 </g>
 <g>
  <title>Layer 1</title>
  <path id="svg_4" fill="#efb7b9" d="m166.33,302.75c-10,14.31 -45.95,6.73 -45.95,6.73l-27.86,-26.07l-3.75,-3.53l6.29,-13.36s2,0.55 5.43,1.53c18.01,5.23 74.28,22.67 65.84,34.7z"/>
  <path id="svg_5" opacity="0.1" d="m100.47,268.05c-1.23,4.28 -4.6,10.69 -7.95,15.36l-3.75,-3.53l6.29,-13.36s2.02,0.55 5.41,1.53z"/>
  <polygon id="svg_52" fill="#00bfa6" points="33.959991455078125,241.3299560546875 110.96002197265625,228.79998779296875 110.96002197265625,301.70001220703125 37.79998779296875,297.8699951171875 33.959991455078125,241.3299560546875 "/>
  <polygon id="svg_53" opacity="0.05" points="33.959991455078125,241.3299560546875 110.96002197265625,228.79998779296875 110.96002197265625,301.70001220703125 37.79998779296875,297.8699951171875 33.959991455078125,241.3299560546875 "/>
  <polygon id="svg_54" fill="#00bfa6" points="110.96002197265625,228.79998779296875 203.29998779296875,235.70999145507812 198.19000244140625,299.1500244140625 110.96002197265625,301.70001220703125 110.96002197265625,228.79998779296875 "/>
  <polygon id="svg_55" opacity="0.1" points="110.96002197265625,228.79998779296875 203.29998779296875,235.70999145507812 198.19000244140625,299.1500244140625 110.96002197265625,301.70001220703125 110.96002197265625,228.79998779296875 "/>
  <polygon id="svg_56" fill="#00bfa6" points="139.3499755859375,206.54998779296875 110.96002197265625,228.79998779296875 203.29998779296875,235.70999145507812 218.3900146484375,212.94000244140625 139.3499755859375,206.54998779296875 "/>
  <polygon id="svg_57" fill="#00bfa6" points="6.079986572265625,217.02999877929688 75.39999389648438,208.58999633789062 110.96002197265625,228.79998779296875 33.959991455078125,241.3299560546875 6.079986572265625,217.02999877929688 "/>
  <polygon id="svg_58" fill="#00bfa6" points="127.84002685546875,247.72998046875 127.84002685546875,347.4000244140625 91.76998901367188,343.70001220703125 76.07998657226562,342.0999755859375 71.29998779296875,341.60003662109375 55.6199951171875,339.989990234375 33.959991455078125,337.76995849609375 33.959991455078125,241.3299560546875 110.95001220703125,246.57000732421875 127.84002685546875,247.72998046875 "/>
  <polygon id="svg_59" fill="#00bfa6" points="203.29998779296875,235.70999145507812 203.29998779296875,332.9100341796875 174.3900146484375,338.46002197265625 160.3299560546875,341.15997314453125 127.84002685546875,347.4000244140625 127.84002685546875,247.72998046875 203.29998779296875,235.70999145507812 "/>
  <polygon id="svg_60" opacity="0.05" points="203.29998779296875,235.70999145507812 203.29998779296875,332.9100341796875 174.3900146484375,338.46002197265625 160.3299560546875,341.15997314453125 127.84002685546875,347.4000244140625 127.84002685546875,247.72998046875 203.29998779296875,235.70999145507812 "/>
  <polygon id="svg_61" fill="#00bfa6" points="6.079986572265625,262.30999755859375 33.959991455078125,241.3299560546875 127.84002685546875,247.72998046875 114.02001953125,271.010009765625 6.079986572265625,262.30999755859375 "/>
  <polygon id="svg_62" opacity="0.1" fill="#fff" points="6.079986572265625,262.30999755859375 33.959991455078125,241.3299560546875 127.84002685546875,247.72998046875 114.02001953125,271.010009765625 6.079986572265625,262.30999755859375 "/>
  <polygon id="svg_63" fill="#00bfa6" points="203.29998779296875,235.70999145507812 127.84002685546875,247.72998046875 152.4000244140625,269.72998046875 233.22998046875,256.1700439453125 203.29998779296875,235.70999145507812 "/>
  <polygon id="svg_64" opacity="0.1" fill="#fff" points="203.29998779296875,235.70999145507812 127.84002685546875,247.72998046875 152.4000244140625,269.72998046875 233.22998046875,256.1700439453125 203.29998779296875,235.70999145507812 "/>
  <polygon id="svg_66" opacity="0.1" fill="#fff" points="91.76998901367188,329.96002197265625 91.76998901367188,343.70001220703125 76.07998657226562,342.0999755859375 76.07998657226562,329.96002197265625 91.76998901367188,329.96002197265625 "/>
  <polygon id="svg_67" opacity="0.1" fill="#fff" points="76.29998779296875,326.2900390625 76.29998779296875,333.60003662109375 60.6199951171875,331.989990234375 60.6199951171875,326.2900390625 76.29998779296875,326.2900390625 "/>
  <ellipse id="svg_92" opacity="0.1" fill="#00bfa6" ry="4.55" rx="26.93" cy="780.83" cx="805.06"/>
 </g>
</svg>