<svg width="640" height="640" xmlns="http://www.w3.org/2000/svg" class="svg-inline--fa fa-warehouse fa-w-20">

 <g>
  <title>background</title>
  <rect fill="none" id="canvas_background" height="642" width="642" y="-1" x="-1"/>
 </g>
 <g>
  <title>Layer 1</title>
  <path stroke="null" id="svg_1" d="m505,442.74797l-367.6,0c-4.4,0 -8,4.52817 -8,10.0626l-0.1,60.3756c0,5.53443 3.6,10.0626 8,10.0626l367.7,0c4.4,0 8,-4.52817 8,-10.0626l0,-60.3756c0,-5.53443 -3.6,-10.0626 -8,-10.0626zm0,120.7512l-367.9,0c-4.4,0 -8,4.52817 -8,10.0626l-0.1,60.3756c0,5.53443 3.6,10.0626 8,10.0626l368,0c4.4,0 8,-4.52817 8,-10.0626l0,-60.3756c0,-5.53443 -3.6,-10.0626 -8,-10.0626zm0,-241.5024l-367.4,0c-4.4,0 -8,4.52817 -8,10.0626l-0.1,60.3756c0,5.53443 3.6,10.0626 8,10.0626l367.5,0c4.4,0 8,-4.52817 8,-10.0626l0,-60.3756c0,-5.53443 -3.6,-10.0626 -8,-10.0626zm106.5,-174.83768l-272.1,-142.51157a48.15,60.56427 0 0 0 -36.9,0l-272,142.51157c-17.8,9.43369 -29.5,31.31985 -29.5,55.72165l0,431.05663c0,5.53443 3.6,10.0626 8,10.0626l80,0c4.4,0 8,-4.52817 8,-10.0626l0,-311.9406c0,-22.13772 14.6,-40.2504 32.6,-40.2504l382.8,0c18,0 32.6,18.11268 32.6,40.2504l0,311.9406c0,5.53443 3.6,10.0626 8,10.0626l80,0c4.4,0 8,-4.52817 8,-10.0626l0,-431.05663c0,-24.4018 -11.7,-46.28796 -29.5,-55.72165z" fill="#33b482"/>
 </g>
</svg>